<svg version="1.1" viewBox="0.0 0.0 960.0 720.0" fill="none" stroke="none" stroke-linecap="square" stroke-miterlimit="10" xmlns:xlink="http://www.w3.org/1999/xlink" xmlns="http://www.w3.org/2000/svg"><clipPath id="p.0"><path d="m0 0l960.0 0l0 720.0l-960.0 0l0 -720.0z" clip-rule="nonzero"/></clipPath><g clip-path="url(#p.0)"><path fill="#000000" fill-opacity="0.0" d="m0 0l960.0 0l0 720.0l-960.0 0z" fill-rule="evenodd"/><path fill="#efefef" d="m48.24672 214.02625l111.33858 0l0 74.20471l-111.33858 0z" fill-rule="evenodd"/><path stroke="#000000" stroke-width="1.0" stroke-linejoin="round" stroke-linecap="butt" d="m48.24672 214.02625l111.33858 0l0 74.20471l-111.33858 0z" fill-rule="evenodd"/><path fill="#000000" d="m58.68422 259.3886l0 -16.109375l4.953125 0q2.125 0 3.796875 0.96875q1.6875 0.953125 2.625 2.71875q0.9375 1.75 0.9375 4.0l0 0.75q0 2.234375 -0.921875 3.984375q-0.921875 1.75 -2.609375 2.71875q-1.671875 0.953125 -3.796875 0.96875l-4.984375 0zm3.3125 -13.421875l0 10.75l1.609375 0q1.953125 0 2.96875 -1.265625q1.03125 -1.265625 1.0625 -3.640625l0 -0.859375q0 -2.453125 -1.015625 -3.71875q-1.015625 -1.265625 -2.984375 -1.265625l-1.640625 0zm14.583725 13.421875l-3.21875 0l0 -11.96875l3.21875 0l0 11.96875zm-3.40625 -15.0625q0 -0.71875 0.484375 -1.1875q0.484375 -0.46875 1.3125 -0.46875q0.8125 0 1.296875 0.46875q0.5 0.46875 0.5 1.1875q0 0.71875 -0.5 1.1875q-0.484375 0.46875 -1.296875 0.46875q-0.8125 0 -1.3125 -0.46875q-0.484375 -0.46875 -0.484375 -1.1875zm12.507004 11.75q0 -0.578125 -0.578125 -0.90625q-0.578125 -0.34375 -1.859375 -0.609375q-4.265625 -0.90625 -4.265625 -3.640625q0 -1.59375 1.3125 -2.65625q1.328125 -1.0625 3.46875 -1.0625q2.265625 0 3.625 1.078125q1.375 1.0625 1.375 2.78125l-3.1875 0q0 -0.6875 -0.453125 -1.125q-0.4375 -0.453125 -1.375 -0.453125q-0.8125 0 -1.25 0.359375q-0.4375 0.359375 -0.4375 0.921875q0 0.53125 0.5 0.859375q0.5 0.328125 1.6875 0.578125q1.203125 0.234375 2.015625 0.53125q2.53125 0.921875 2.53125 3.21875q0 1.640625 -1.40625 2.65625q-1.390625 1.0 -3.625 1.0q-1.5 0 -2.671875 -0.53125q-1.15625 -0.546875 -1.828125 -1.46875q-0.65625 -0.9375 -0.65625 -2.03125l3.03125 0q0.03125 0.859375 0.625 1.3125q0.59375 0.453125 1.578125 0.453125q0.90625 0 1.375 -0.34375q0.46875 -0.359375 0.46875 -0.921875zm9.008316 -11.59375l0 2.9375l2.046875 0l0 2.34375l-2.046875 0l0 5.96875q0 0.671875 0.25 0.96875q0.25 0.28125 0.96875 0.28125q0.53125 0 0.9375 -0.078125l0 2.421875q-0.9375 0.28125 -1.9375 0.28125q-3.359375 0 -3.421875 -3.390625l0 -6.453125l-1.75 0l0 -2.34375l1.75 0l0 -2.9375l3.203125 0zm10.764709 14.90625q-0.234375 -0.4375 -0.328125 -1.078125q-1.15625 1.296875 -3.015625 1.296875q-1.765625 0 -2.921875 -1.015625q-1.15625 -1.015625 -1.15625 -2.5625q0 -1.90625 1.40625 -2.921875q1.421875 -1.015625 4.078125 -1.03125l1.46875 0l0 -0.6875q0 -0.828125 -0.421875 -1.328125q-0.421875 -0.5 -1.34375 -0.5q-0.796875 0 -1.265625 0.390625q-0.453125 0.390625 -0.453125 1.0625l-3.203125 0q0 -1.046875 0.640625 -1.921875q0.640625 -0.890625 1.8125 -1.390625q1.171875 -0.5 2.640625 -0.5q2.203125 0 3.5 1.109375q1.3125 1.109375 1.3125 3.125l0 5.1875q0.015625 1.703125 0.46875 2.578125l0 0.1875l-3.21875 0zm-2.65625 -2.21875q0.71875 0 1.3125 -0.3125q0.59375 -0.328125 0.875 -0.859375l0 -2.046875l-1.1875 0q-2.40625 0 -2.5625 1.65625l0 0.1875q0 0.59375 0.421875 0.984375q0.421875 0.390625 1.140625 0.390625zm10.803009 -9.75l0.09375 1.375q1.28125 -1.59375 3.4375 -1.59375q1.90625 0 2.828125 1.125q0.9375 1.109375 0.96875 3.328125l0 7.734375l-3.203125 0l0 -7.65625q0 -1.015625 -0.453125 -1.46875q-0.4375 -0.46875 -1.453125 -0.46875q-1.359375 0 -2.03125 1.15625l0 8.4375l-3.203125 0l0 -11.96875l3.015625 0zm14.7200775 9.609375q0.890625 0 1.4375 -0.484375q0.5625 -0.484375 0.578125 -1.296875l3.0 0q-0.015625 1.21875 -0.671875 2.234375q-0.640625 1.015625 -1.78125 1.578125q-1.125 0.546875 -2.5 0.546875q-2.578125 0 -4.0625 -1.625q-1.46875 -1.640625 -1.46875 -4.515625l0 -0.203125q0 -2.765625 1.46875 -4.40625q1.46875 -1.65625 4.03125 -1.65625q2.25 0 3.609375 1.28125q1.359375 1.265625 1.375 3.390625l-3.0 0q-0.015625 -0.921875 -0.578125 -1.5q-0.546875 -0.59375 -1.453125 -0.59375q-1.125 0 -1.703125 0.828125q-0.5625 0.8125 -0.5625 2.625l0 0.34375q0 1.84375 0.5625 2.65625q0.578125 0.796875 1.71875 0.796875zm12.34613 2.578125q-2.625 0 -4.28125 -1.609375q-1.65625 -1.625 -1.65625 -4.3125l0 -0.296875q0 -1.8125 0.6875 -3.234375q0.703125 -1.421875 1.984375 -2.1875q1.28125 -0.765625 2.921875 -0.765625q2.453125 0 3.859375 1.546875q1.40625 1.546875 1.40625 4.390625l0 1.3125l-7.625 0q0.15625 1.171875 0.9375 1.875q0.78125 0.703125 1.984375 0.703125q1.84375 0 2.875 -1.328125l1.578125 1.75q-0.71875 1.015625 -1.953125 1.59375q-1.21875 0.5625 -2.71875 0.5625zm-0.359375 -9.828125q-0.953125 0 -1.546875 0.65625q-0.59375 0.640625 -0.75 1.828125l4.4375 0l0 -0.25q-0.015625 -1.0625 -0.578125 -1.640625q-0.546875 -0.59375 -1.5625 -0.59375z" fill-rule="nonzero"/><path fill="#999999" d="m159.58661 214.02625l111.33859 0l0 74.20471l-111.33859 0z" fill-rule="evenodd"/><path stroke="#000000" stroke-width="1.0" stroke-linejoin="round" stroke-linecap="butt" d="m159.58661 214.02625l111.33859 0l0 74.20471l-111.33859 0z" fill-rule="evenodd"/><path fill="#ffffff" d="m197.33617 251.46674l0.921875 -8.1875l9.03125 0l0 2.671875l-6.40625 0l-0.40625 3.453125q1.140625 -0.609375 2.421875 -0.609375q2.3125 0 3.609375 1.4375q1.3125 1.421875 1.3125 3.984375q0 1.5625 -0.671875 2.796875q-0.65625 1.234375 -1.890625 1.921875q-1.21875 0.671875 -2.890625 0.671875q-1.453125 0 -2.703125 -0.59375q-1.25 -0.59375 -1.984375 -1.65625q-0.71875 -1.078125 -0.765625 -2.453125l3.171875 0q0.09375 1.015625 0.6875 1.578125q0.609375 0.546875 1.59375 0.546875q1.078125 0 1.65625 -0.78125q0.59375 -0.78125 0.59375 -2.203125q0 -1.375 -0.671875 -2.09375q-0.671875 -0.734375 -1.921875 -0.734375q-1.125 0 -1.84375 0.59375l-0.3125 0.28125l-2.53125 -0.625zm21.96733 1.859375l1.828125 0l0 2.578125l-1.828125 0l0 3.484375l-3.1875 0l0 -3.484375l-6.609375 0l-0.140625 -2.015625l6.71875 -10.609375l3.21875 0l0 10.046875zm-6.75 0l3.5625 0l0 -5.6875l-0.21875 0.359375l-3.34375 5.328125zm13.545441 -3.40625l1.703125 0q1.21875 0 1.796875 -0.609375q0.59375 -0.609375 0.59375 -1.609375q0 -0.984375 -0.578125 -1.515625q-0.578125 -0.546875 -1.59375 -0.546875q-0.921875 0 -1.546875 0.5q-0.609375 0.5 -0.609375 1.3125l-3.2031097 0q0 -1.265625 0.671875 -2.265625q0.68748474 -1.0 1.9062347 -1.5625q1.234375 -0.5625 2.703125 -0.5625q2.546875 0 4.0 1.21875q1.453125 1.21875 1.453125 3.375q0 1.109375 -0.6875 2.046875q-0.671875 0.921875 -1.765625 1.40625q1.359375 0.5 2.03125 1.46875q0.671875 0.96875 0.671875 2.296875q0 2.140625 -1.5625 3.4375q-1.5625 1.296875 -4.140625 1.296875q-2.421875 0 -3.953125 -1.265625q-1.5312347 -1.28125 -1.5312347 -3.359375l3.2031097 0q0 0.90625 0.671875 1.484375q0.6875 0.5625 1.6875 0.5625q1.140625 0 1.78125 -0.59375q0.640625 -0.609375 0.640625 -1.609375q0 -2.40625 -2.640625 -2.40625l-1.703125 0l0 -2.5z" fill-rule="nonzero"/><path fill="#000000" fill-opacity="0.0" d="m131.13387 299.38058l59.37007 0l0 46.86612l-59.37007 0z" fill-rule="evenodd"/><path fill="#000000" d="m148.99324 330.14056l-3.1875 0l0 -12.328125l-3.828125 1.1875l0 -2.59375l6.671875 -2.390625l0.34375 0l0 16.125zm16.076706 -6.65625q0 3.34375 -1.390625 5.109375q-1.375 1.765625 -4.046875 1.765625q-2.625 0 -4.03125 -1.734375q-1.390625 -1.734375 -1.421875 -4.984375l0 -2.953125q0 -3.375 1.390625 -5.125q1.40625 -1.75 4.03125 -1.75q2.640625 0 4.03125 1.734375q1.40625 1.734375 1.4375 4.96875l0 2.96875zm-3.203125 -3.25q0 -2.015625 -0.546875 -2.921875q-0.546875 -0.90625 -1.703125 -0.90625q-1.125 0 -1.671875 0.875q-0.53125 0.859375 -0.5625 2.703125l0 3.921875q0 1.96875 0.53125 2.921875q0.546875 0.953125 1.71875 0.953125q1.171875 0 1.6875 -0.90625q0.53125 -0.921875 0.546875 -2.8125l0 -3.828125zm13.123581 9.90625l-3.1875 0l0 -12.328125l-3.828125 1.1875l0 -2.59375l6.671875 -2.390625l0.34375 0l0 16.125z" fill-rule="nonzero"/><path fill="#efefef" d="m655.5066 214.02625l111.33856 0l0 74.20471l-111.33856 0z" fill-rule="evenodd"/><path stroke="#000000" stroke-width="1.0" stroke-linejoin="round" stroke-linecap="butt" d="m655.5066 214.02625l111.33856 0l0 74.20471l-111.33856 0z" fill-rule="evenodd"/><path fill="#000000" d="m665.9441 259.3886l0 -16.109375l4.953125 0q2.125 0 3.796875 0.96875q1.6875 0.953125 2.625 2.71875q0.9375 1.75 0.9375 4.0l0 0.75q0 2.234375 -0.921875 3.984375q-0.921875 1.75 -2.609375 2.71875q-1.671875 0.953125 -3.796875 0.96875l-4.984375 0zm3.3125 -13.421875l0 10.75l1.609375 0q1.953125 0 2.96875 -1.265625q1.03125 -1.265625 1.0625 -3.640625l0 -0.859375q0 -2.453125 -1.015625 -3.71875q-1.015625 -1.265625 -2.984375 -1.265625l-1.640625 0zm14.583679 13.421875l-3.21875 0l0 -11.96875l3.21875 0l0 11.96875zm-3.40625 -15.0625q0 -0.71875 0.484375 -1.1875q0.484375 -0.46875 1.3125 -0.46875q0.8125 0 1.296875 0.46875q0.5 0.46875 0.5 1.1875q0 0.71875 -0.5 1.1875q-0.484375 0.46875 -1.296875 0.46875q-0.8125 0 -1.3125 -0.46875q-0.484375 -0.46875 -0.484375 -1.1875zm12.507019 11.75q0 -0.578125 -0.578125 -0.90625q-0.578125 -0.34375 -1.859375 -0.609375q-4.265625 -0.90625 -4.265625 -3.640625q0 -1.59375 1.3125 -2.65625q1.328125 -1.0625 3.46875 -1.0625q2.265625 0 3.625 1.078125q1.375 1.0625 1.375 2.78125l-3.1875 0q0 -0.6875 -0.453125 -1.125q-0.4375 -0.453125 -1.375 -0.453125q-0.8125 0 -1.25 0.359375q-0.4375 0.359375 -0.4375 0.921875q0 0.53125 0.5 0.859375q0.5 0.328125 1.6875 0.578125q1.203125 0.234375 2.015625 0.53125q2.53125 0.921875 2.53125 3.21875q0 1.640625 -1.40625 2.65625q-1.390625 1.0 -3.625 1.0q-1.5 0 -2.671875 -0.53125q-1.15625 -0.546875 -1.828125 -1.46875q-0.65625 -0.9375 -0.65625 -2.03125l3.03125 0q0.03125 0.859375 0.625 1.3125q0.59375 0.453125 1.578125 0.453125q0.90625 0 1.375 -0.34375q0.46875 -0.359375 0.46875 -0.921875zm9.008301 -11.59375l0 2.9375l2.046875 0l0 2.34375l-2.046875 0l0 5.96875q0 0.671875 0.25 0.96875q0.25 0.28125 0.96875 0.28125q0.53125 0 0.9375 -0.078125l0 2.421875q-0.9375 0.28125 -1.9375 0.28125q-3.359375 0 -3.421875 -3.390625l0 -6.453125l-1.75 0l0 -2.34375l1.75 0l0 -2.9375l3.203125 0zm10.764709 14.90625q-0.234375 -0.4375 -0.328125 -1.078125q-1.15625 1.296875 -3.015625 1.296875q-1.765625 0 -2.921875 -1.015625q-1.15625 -1.015625 -1.15625 -2.5625q0 -1.90625 1.40625 -2.921875q1.421875 -1.015625 4.078125 -1.03125l1.46875 0l0 -0.6875q0 -0.828125 -0.421875 -1.328125q-0.421875 -0.5 -1.34375 -0.5q-0.796875 0 -1.265625 0.390625q-0.453125 0.390625 -0.453125 1.0625l-3.203125 0q0 -1.046875 0.640625 -1.921875q0.640625 -0.890625 1.8125 -1.390625q1.171875 -0.5 2.640625 -0.5q2.203125 0 3.5 1.109375q1.3125 1.109375 1.3125 3.125l0 5.1875q0.015625 1.703125 0.46875 2.578125l0 0.1875l-3.21875 0zm-2.65625 -2.21875q0.71875 0 1.3125 -0.3125q0.59375 -0.328125 0.875 -0.859375l0 -2.046875l-1.1875 0q-2.40625 0 -2.5625 1.65625l0 0.1875q0 0.59375 0.421875 0.984375q0.421875 0.390625 1.140625 0.390625zm10.80304 -9.75l0.09375 1.375q1.28125 -1.59375 3.4375 -1.59375q1.90625 0 2.828125 1.125q0.9375 1.109375 0.96875 3.328125l0 7.734375l-3.203125 0l0 -7.65625q0 -1.015625 -0.453125 -1.46875q-0.4375 -0.46875 -1.453125 -0.46875q-1.359375 0 -2.03125 1.15625l0 8.4375l-3.203125 0l0 -11.96875l3.015625 0zm14.720093 9.609375q0.890625 0 1.4375 -0.484375q0.5625 -0.484375 0.578125 -1.296875l3.0 0q-0.015625 1.21875 -0.671875 2.234375q-0.640625 1.015625 -1.78125 1.578125q-1.125 0.546875 -2.5 0.546875q-2.578125 0 -4.0625 -1.625q-1.46875 -1.640625 -1.46875 -4.515625l0 -0.203125q0 -2.765625 1.46875 -4.40625q1.46875 -1.65625 4.03125 -1.65625q2.25 0 3.609375 1.28125q1.359375 1.265625 1.375 3.390625l-3.0 0q-0.015625 -0.921875 -0.578125 -1.5q-0.546875 -0.59375 -1.453125 -0.59375q-1.125 0 -1.703125 0.828125q-0.5625 0.8125 -0.5625 2.625l0 0.34375q0 1.84375 0.5625 2.65625q0.578125 0.796875 1.71875 0.796875zm12.34613 2.578125q-2.625 0 -4.28125 -1.609375q-1.65625 -1.625 -1.65625 -4.3125l0 -0.296875q0 -1.8125 0.6875 -3.234375q0.703125 -1.421875 1.984375 -2.1875q1.28125 -0.765625 2.921875 -0.765625q2.453125 0 3.859375 1.546875q1.40625 1.546875 1.40625 4.390625l0 1.3125l-7.625 0q0.15625 1.171875 0.9375 1.875q0.78125 0.703125 1.984375 0.703125q1.84375 0 2.875 -1.328125l1.578125 1.75q-0.71875 1.015625 -1.953125 1.59375q-1.21875 0.5625 -2.71875 0.5625zm-0.359375 -9.828125q-0.953125 0 -1.546875 0.65625q-0.59375 0.640625 -0.75 1.828125l4.4375 0l0 -0.25q-0.015625 -1.0625 -0.578125 -1.640625q-0.546875 -0.59375 -1.5625 -0.59375z" fill-rule="nonzero"/><path fill="#999999" d="m766.84644 214.02625l111.33862 0l0 74.20471l-111.33862 0z" fill-rule="evenodd"/><path stroke="#000000" stroke-width="1.0" stroke-linejoin="round" stroke-linecap="butt" d="m766.84644 214.02625l111.33862 0l0 74.20471l-111.33862 0z" fill-rule="evenodd"/><path fill="#ffffff" d="m807.9973 247.41986l0.09375 1.375q1.28125 -1.59375 3.4375 -1.59375q1.90625 0 2.828125 1.125q0.9375 1.109375 0.96875 3.328125l0 7.734375l-3.203125 0l0 -7.65625q0 -1.015625 -0.453125 -1.46875q-0.4375 -0.46875 -1.453125 -0.46875q-1.359375 0 -2.03125 1.15625l0 8.4375l-3.203125 0l0 -11.96875l3.015625 0zm16.907593 10.75q-1.171875 1.4375 -3.265625 1.4375q-1.921875 0 -2.9375 -1.09375q-1.015625 -1.109375 -1.03125 -3.25l0 -7.84375l3.1875 0l0 7.734375q0 1.859375 1.703125 1.859375q1.625 0 2.234375 -1.125l0 -8.46875l3.21875 0l0 11.96875l-3.015625 0l-0.09375 -1.21875zm8.896484 1.21875l-3.21875 0l0 -17.0l3.21875 0l0 17.0zm6.007019 0l-3.21875 0l0 -17.0l3.21875 0l0 17.0z" fill-rule="nonzero"/><path fill="#000000" fill-opacity="0.0" d="m737.15485 299.38058l59.370117 0l0 46.86612l-59.370117 0z" fill-rule="evenodd"/><path fill="#000000" d="m747.733 322.2187l0.921875 -8.1875l9.03125 0l0 2.671875l-6.40625 0l-0.40625 3.453125q1.140625 -0.609375 2.421875 -0.609375q2.3125 0 3.609375 1.4375q1.3125 1.421875 1.3125 3.984375q0 1.5625 -0.671875 2.796875q-0.65625 1.234375 -1.890625 1.921875q-1.21875 0.671875 -2.890625 0.671875q-1.453125 0 -2.703125 -0.59375q-1.25 -0.59375 -1.984375 -1.65625q-0.71875 -1.078125 -0.765625 -2.453125l3.171875 0q0.09375 1.015625 0.6875 1.578125q0.609375 0.546875 1.59375 0.546875q1.078125 0 1.65625 -0.78125q0.59375 -0.78125 0.59375 -2.203125q0 -1.375 -0.671875 -2.09375q-0.671875 -0.734375 -1.921875 -0.734375q-1.125 0 -1.84375 0.59375l-0.3125 0.28125l-2.53125 -0.625zm21.967346 1.859375l1.828125 0l0 2.578125l-1.828125 0l0 3.484375l-3.1875 0l0 -3.484375l-6.609375 0l-0.140625 -2.015625l6.71875 -10.609375l3.21875 0l0 10.046875zm-6.75 0l3.5625 0l0 -5.6875l-0.21875 0.359375l-3.34375 5.328125zm13.545471 -3.40625l1.703125 0q1.21875 0 1.796875 -0.609375q0.59375 -0.609375 0.59375 -1.609375q0 -0.984375 -0.578125 -1.515625q-0.578125 -0.546875 -1.59375 -0.546875q-0.921875 0 -1.546875 0.5q-0.609375 0.5 -0.609375 1.3125l-3.203125 0q0 -1.265625 0.671875 -2.265625q0.6875 -1.0 1.90625 -1.5625q1.234375 -0.5625 2.703125 -0.5625q2.546875 0 4.0 1.21875q1.453125 1.21875 1.453125 3.375q0 1.109375 -0.6875 2.046875q-0.671875 0.921875 -1.765625 1.40625q1.359375 0.5 2.03125 1.46875q0.671875 0.96875 0.671875 2.296875q0 2.140625 -1.5625 3.4375q-1.5625 1.296875 -4.140625 1.296875q-2.421875 0 -3.953125 -1.265625q-1.53125 -1.28125 -1.53125 -3.359375l3.203125 0q0 0.90625 0.671875 1.484375q0.6875 0.5625 1.6875 0.5625q1.140625 0 1.78125 -0.59375q0.640625 -0.609375 0.640625 -1.609375q0 -2.40625 -2.640625 -2.40625l-1.703125 0l0 -2.5z" fill-rule="nonzero"/><path fill="#efefef" d="m38.351707 66.073494l74.29921 0l0 60.69291l-74.29921 0z" fill-rule="evenodd"/><path stroke="#000000" stroke-width="1.0" stroke-linejoin="round" stroke-linecap="butt" d="m38.351707 66.073494l74.29921 0l0 60.69291l-74.29921 0z" fill-rule="evenodd"/><path fill="#000000" d="m61.898582 104.67995l-3.3125 0l0 -6.90625l-6.484375 0l0 6.90625l-3.3125 0l0 -16.109375l3.3125 0l0 6.53125l6.484375 0l0 -6.53125l3.3125 0l0 16.109375zm8.195114 0.21875q-2.625 0 -4.28125 -1.609375q-1.65625 -1.625 -1.65625 -4.3125l0 -0.296875q0 -1.8125 0.6875 -3.234375q0.703125 -1.421875 1.984375 -2.1875q1.28125 -0.765625 2.921875 -0.765625q2.453125 0 3.859375 1.546875q1.40625 1.546875 1.40625 4.390625l0 1.3125l-7.625 0q0.15625 1.171875 0.9375 1.875q0.78125 0.703125 1.984375 0.703125q1.84375 0 2.875 -1.328125l1.578125 1.75q-0.71875 1.015625 -1.953125 1.59375q-1.21875 0.5625 -2.71875 0.5625zm-0.359375 -9.828125q-0.953125 0 -1.546875 0.65625q-0.59375 0.640625 -0.75 1.828125l4.4375 0l0 -0.25q-0.015625 -1.0625 -0.578125 -1.640625q-0.546875 -0.59375 -1.5625 -0.59375zm14.043198 9.609375q-0.234375 -0.4375 -0.328125 -1.078125q-1.15625 1.296875 -3.015625 1.296875q-1.765625 0 -2.921875 -1.015625q-1.15625 -1.015625 -1.15625 -2.5625q0 -1.90625 1.40625 -2.921875q1.421875 -1.015625 4.078125 -1.03125l1.46875 0l0 -0.6875q0 -0.828125 -0.421875 -1.328125q-0.421875 -0.5 -1.34375 -0.5q-0.796875 0 -1.265625 0.390625q-0.453125 0.390625 -0.453125 1.0625l-3.203125 0q0 -1.046875 0.640625 -1.921875q0.640625 -0.890625 1.8125 -1.390625q1.171875 -0.5 2.640625 -0.5q2.203125 0 3.5 1.109375q1.3125 1.109375 1.3125 3.125l0 5.1875q0.015625 1.703125 0.46875 2.578125l0 0.1875l-3.21875 0zm-2.65625 -2.21875q0.71875 0 1.3125 -0.3125q0.59375 -0.328125 0.875 -0.859375l0 -2.046875l-1.1875 0q-2.40625 0 -2.5625 1.65625l0 0.1875q0 0.59375 0.421875 0.984375q0.421875 0.390625 1.140625 0.390625zm7.365509 -3.859375q0 -2.796875 1.25 -4.453125q1.25 -1.65625 3.4375 -1.65625q1.75 0 2.890625 1.296875l0 -6.109375l3.203125 0l0 17.0l-2.890625 0l-0.15625 -1.265625q-1.1875 1.484375 -3.0625 1.484375q-2.125 0 -3.40625 -1.65625q-1.265625 -1.671875 -1.265625 -4.640625zm3.1875 0.234375q0 1.6875 0.578125 2.578125q0.59375 0.890625 1.71875 0.890625q1.484375 0 2.09375 -1.25l0 -4.71875q-0.609375 -1.25 -2.078125 -1.25q-2.3125 0 -2.3125 3.75z" fill-rule="nonzero"/><path fill="#000000" fill-opacity="0.0" d="m38.351707 96.419945l-25.000038 0l0 154.70868l34.8898 0" fill-rule="evenodd"/><path stroke="#000000" stroke-width="2.0" stroke-linejoin="round" stroke-linecap="butt" d="m38.351707 96.419945l-25.000038 0l0 154.70868l34.8898 0" fill-rule="evenodd"/><path fill="#000000" fill-opacity="0.0" d="m74.23097 135.77953l59.37007 0l0 42.015747l-59.37007 0z" fill-rule="evenodd"/><path fill="#000000" d="m84.41847 162.69952l0 -13.265625l4.078125 0q1.75 0 3.125 0.796875q1.390625 0.78125 2.15625 2.234375q0.78125 1.453125 0.78125 3.296875l0 0.609375q0 1.859375 -0.765625 3.296875q-0.765625 1.4375 -2.15625 2.234375q-1.375 0.78125 -3.109375 0.796875l-4.109375 0zm2.734375 -11.046875l0 8.84375l1.3125 0q1.609375 0 2.453125 -1.046875q0.84375 -1.046875 0.859375 -2.984375l0 -0.703125q0 -2.03125 -0.84375 -3.0625q-0.828125 -1.046875 -2.4375 -1.046875l-1.34375 0zm14.921616 11.046875q-0.171875 -0.359375 -0.265625 -0.890625q-0.953125 1.078125 -2.484375 1.078125q-1.453125 0 -2.40625 -0.84375q-0.9375 -0.84375 -0.9375 -2.109375q0 -1.578125 1.15625 -2.40625q1.15625 -0.84375 3.359375 -0.84375l1.203125 0l0 -0.578125q0 -0.671875 -0.359375 -1.078125q-0.34375 -0.421875 -1.09375 -0.421875q-0.65625 0 -1.046875 0.328125q-0.375 0.3125 -0.375 0.875l-2.625 0q0 -0.859375 0.515625 -1.578125q0.53125 -0.734375 1.5 -1.140625q0.96875 -0.421875 2.171875 -0.421875q1.8125 0 2.875 0.921875q1.078125 0.90625 1.078125 2.5625l0 4.265625q0.015625 1.40625 0.390625 2.125l0 0.15625l-2.65625 0zm-2.171875 -1.828125q0.578125 0 1.0625 -0.25q0.5 -0.265625 0.734375 -0.703125l0 -1.703125l-0.984375 0q-1.96875 0 -2.09375 1.375l-0.015625 0.15625q0 0.484375 0.34375 0.8125q0.34375 0.3125 0.953125 0.3125zm9.611603 -10.453125l0 2.421875l1.6875 0l0 1.9375l-1.6875 0l0 4.921875q0 0.546875 0.203125 0.78125q0.21875 0.234375 0.8125 0.234375q0.4375 0 0.78125 -0.0625l0 2.0q-0.78125 0.234375 -1.59375 0.234375q-2.78125 0 -2.828125 -2.796875l0 -5.3125l-1.4375 0l0 -1.9375l1.4375 0l0 -2.421875l2.625 0zm8.866272 12.28125q-0.171875 -0.359375 -0.265625 -0.890625q-0.953125 1.078125 -2.484375 1.078125q-1.453125 0 -2.40625 -0.84375q-0.9375 -0.84375 -0.9375 -2.109375q0 -1.578125 1.15625 -2.40625q1.15625 -0.84375 3.359375 -0.84375l1.203125 0l0 -0.578125q0 -0.671875 -0.359375 -1.078125q-0.34375 -0.421875 -1.09375 -0.421875q-0.65625 0 -1.046875 0.328125q-0.375 0.3125 -0.375 0.875l-2.625 0q0 -0.859375 0.515625 -1.578125q0.53125 -0.734375 1.5 -1.140625q0.96875 -0.421875 2.171875 -0.421875q1.8125 0 2.875 0.921875q1.078125 0.90625 1.078125 2.5625l0 4.265625q0.015625 1.40625 0.390625 2.125l0 0.15625l-2.65625 0zm-2.171875 -1.828125q0.578125 0 1.0625 -0.25q0.5 -0.265625 0.734375 -0.703125l0 -1.703125l-0.984375 0q-1.96875 0 -2.09375 1.375l-0.015625 0.15625q0 0.484375 0.34375 0.8125q0.34375 0.3125 0.953125 0.3125z" fill-rule="nonzero"/><path fill="#000000" fill-opacity="0.0" d="m103.91601 177.79527l0 36.220474" fill-rule="evenodd"/><path stroke="#000000" stroke-width="2.0" stroke-linejoin="round" stroke-linecap="butt" d="m103.91601 177.79527l0 24.220474" fill-rule="evenodd"/><path fill="#000000" stroke="#000000" stroke-width="2.0" stroke-linecap="butt" d="m100.61255 202.01575l3.3034592 9.076202l3.3034668 -9.076202z" fill-rule="evenodd"/><path fill="#000000" fill-opacity="0.0" d="m185.57217 134.65617l59.370087 0l0 42.015747l-59.370087 0z" fill-rule="evenodd"/><path fill="#000000" d="m206.54419 156.9043l0 4.671875l-2.734375 0l0 -13.265625l5.171875 0q1.5 0 2.625 0.546875q1.140625 0.546875 1.75 1.5625q0.609375 1.0 0.609375 2.28125q0 1.953125 -1.34375 3.078125q-1.328125 1.125 -3.6875 1.125l-2.390625 0zm0 -2.21875l2.4375 0q1.078125 0 1.640625 -0.5q0.578125 -0.515625 0.578125 -1.46875q0 -0.96875 -0.578125 -1.5625q-0.5625 -0.609375 -1.578125 -0.625l-2.5 0l0 4.15625zm12.39563 -5.390625l0 2.421875l1.6875 0l0 1.9375l-1.6875 0l0 4.921875q0 0.546875 0.203125 0.78125q0.21875 0.234375 0.8125 0.234375q0.4375 0 0.78125 -0.0625l0 2.0q-0.78125 0.234375 -1.59375 0.234375q-2.78125 0 -2.828125 -2.796875l0 -5.3125l-1.4375 0l0 -1.9375l1.4375 0l0 -2.421875l2.625 0zm8.694397 4.890625q-0.53125 -0.0625 -0.9375 -0.0625q-1.5 0 -1.96875 1.0l0 6.453125l-2.625 0l0 -9.859375l2.484375 0l0.078125 1.171875q0.78125 -1.34375 2.1875 -1.34375q0.4375 0 0.828125 0.109375l-0.046875 2.53125z" fill-rule="nonzero"/><path fill="#000000" fill-opacity="0.0" d="m215.25722 176.67192l0 36.220474" fill-rule="evenodd"/><path stroke="#000000" stroke-width="2.0" stroke-linejoin="round" stroke-linecap="butt" d="m215.25722 176.67192l0 24.220474" fill-rule="evenodd"/><path fill="#000000" stroke="#000000" stroke-width="2.0" stroke-linecap="butt" d="m211.95375 200.8924l3.3034668 9.076187l3.3034668 -9.076187z" fill-rule="evenodd"/><path fill="#000000" fill-opacity="0.0" d="m270.9252 251.12862l384.56693 0" fill-rule="evenodd"/><path stroke="#000000" stroke-width="2.0" stroke-linejoin="round" stroke-linecap="butt" d="m270.9252 251.12862l372.56693 0" fill-rule="evenodd"/><path fill="#000000" stroke="#000000" stroke-width="2.0" stroke-linecap="butt" d="m643.4921 254.43207l9.076172 -3.3034515l-9.076172 -3.3034668z" fill-rule="evenodd"/><path fill="#efefef" d="m810.22833 75.08662l74.299255 0l0 60.69291l-74.299255 0z" fill-rule="evenodd"/><path stroke="#000000" stroke-width="1.0" stroke-linejoin="round" stroke-linecap="butt" d="m810.22833 75.08662l74.299255 0l0 60.69291l-74.299255 0z" fill-rule="evenodd"/><path fill="#000000" d="m832.85956 101.72432l0.09375 1.375q1.28125 -1.59375 3.4375 -1.59375q1.90625 0 2.828125 1.125q0.9375 1.109375 0.96875 3.328125l0 7.734375l-3.203125 0l0 -7.65625q0 -1.015625 -0.453125 -1.46875q-0.4375 -0.46875 -1.453125 -0.46875q-1.359375 0 -2.03125 1.15625l0 8.4375l-3.203125 0l0 -11.96875l3.015625 0zm16.907532 10.75q-1.171875 1.4375 -3.265625 1.4375q-1.921875 0 -2.9375 -1.09375q-1.015625 -1.109375 -1.03125 -3.25l0 -7.84375l3.1875 0l0 7.734375q0 1.859375 1.703125 1.859375q1.625 0 2.234375 -1.125l0 -8.46875l3.21875 0l0 11.96875l-3.015625 0l-0.09375 -1.21875zm8.896545 1.21875l-3.21875 0l0 -17.0l3.21875 0l0 17.0zm6.006958 0l-3.21875 0l0 -17.0l3.21875 0l0 17.0z" fill-rule="nonzero"/><path fill="#000000" fill-opacity="0.0" d="m878.19684 251.13387l0 1.2355347l31.330688 0l0 -146.93634l-24.999939 0" fill-rule="evenodd"/><path stroke="#000000" stroke-width="1.0" stroke-linejoin="round" stroke-linecap="butt" d="m878.19684 251.13387l0 1.2355347l31.330688 0l0 -146.93634l-24.999939 0" fill-rule="evenodd"/><path fill="#efefef" d="m66.80708 544.44354l111.33859 0l0 74.20477l-111.33859 0z" fill-rule="evenodd"/><path stroke="#000000" stroke-width="1.0" stroke-linejoin="round" stroke-linecap="butt" d="m66.80708 544.44354l111.33859 0l0 74.20477l-111.33859 0z" fill-rule="evenodd"/><path fill="#000000" d="m77.24458 589.8059l0 -16.109375l4.953125 0q2.125 0 3.796875 0.96875q1.6875 0.953125 2.625 2.71875q0.9375 1.75 0.9375 4.0l0 0.75q0 2.234375 -0.921875 3.984375q-0.921875 1.75 -2.609375 2.71875q-1.671875 0.953125 -3.796875 0.96875l-4.984375 0zm3.3125 -13.421875l0 10.75l1.609375 0q1.953125 0 2.96875 -1.265625q1.03125 -1.265625 1.0625 -3.640625l0 -0.859375q0 -2.453125 -1.015625 -3.71875q-1.015625 -1.265625 -2.984375 -1.265625l-1.640625 0zm14.583725 13.421875l-3.21875 0l0 -11.96875l3.21875 0l0 11.96875zm-3.40625 -15.0625q0 -0.71875 0.484375 -1.1875q0.484375 -0.46875 1.3125 -0.46875q0.8125 0 1.296875 0.46875q0.5 0.46875 0.5 1.1875q0 0.71875 -0.5 1.1875q-0.484375 0.46875 -1.296875 0.46875q-0.8125 0 -1.3125 -0.46875q-0.484375 -0.46875 -0.484375 -1.1875zm12.507004 11.75q0 -0.578125 -0.578125 -0.90625q-0.578125 -0.34375 -1.859375 -0.609375q-4.265625 -0.90625 -4.265625 -3.640625q0 -1.59375 1.3125 -2.65625q1.328125 -1.0625 3.46875 -1.0625q2.265625 0 3.625 1.078125q1.375 1.0625 1.375 2.78125l-3.1875 0q0 -0.6875 -0.453125 -1.125q-0.4375 -0.453125 -1.375 -0.453125q-0.8125 0 -1.25 0.359375q-0.4375 0.359375 -0.4375 0.921875q0 0.53125 0.5 0.859375q0.5 0.328125 1.6875 0.578125q1.203125 0.234375 2.015625 0.53125q2.53125 0.921875 2.53125 3.21875q0 1.640625 -1.40625 2.65625q-1.390625 1.0 -3.625 1.0q-1.5 0 -2.671875 -0.53125q-1.15625 -0.546875 -1.828125 -1.46875q-0.65625 -0.9375 -0.65625 -2.03125l3.03125 0q0.03125 0.859375 0.625 1.3125q0.59375 0.453125 1.578125 0.453125q0.90625 0 1.375 -0.34375q0.46875 -0.359375 0.46875 -0.921875zm9.008316 -11.59375l0 2.9375l2.046875 0l0 2.34375l-2.046875 0l0 5.96875q0 0.671875 0.25 0.96875q0.25 0.28125 0.96875 0.28125q0.53125 0 0.9375 -0.078125l0 2.421875q-0.9375 0.28125 -1.9375 0.28125q-3.359375 0 -3.421875 -3.390625l0 -6.453125l-1.75 0l0 -2.34375l1.75 0l0 -2.9375l3.203125 0zm10.764709 14.90625q-0.234375 -0.4375 -0.328125 -1.078125q-1.15625 1.296875 -3.015625 1.296875q-1.765625 0 -2.921875 -1.015625q-1.15625 -1.015625 -1.15625 -2.5625q0 -1.90625 1.40625 -2.921875q1.421875 -1.015625 4.078125 -1.03125l1.46875 0l0 -0.6875q0 -0.828125 -0.421875 -1.328125q-0.421875 -0.5 -1.34375 -0.5q-0.796875 0 -1.265625 0.390625q-0.453125 0.390625 -0.453125 1.0625l-3.203125 0q0 -1.046875 0.640625 -1.921875q0.640625 -0.890625 1.8125 -1.390625q1.171875 -0.5 2.640625 -0.5q2.203125 0 3.5 1.109375q1.3125 1.109375 1.3125 3.125l0 5.1875q0.015625 1.703125 0.46875 2.578125l0 0.1875l-3.21875 0zm-2.65625 -2.21875q0.71875 0 1.3125 -0.3125q0.59375 -0.328125 0.875 -0.859375l0 -2.046875l-1.1875 0q-2.40625 0 -2.5625 1.65625l0 0.1875q0 0.59375 0.421875 0.984375q0.421875 0.390625 1.140625 0.390625zm10.803009 -9.75l0.09375 1.375q1.28125 -1.59375 3.4375 -1.59375q1.90625 0 2.828125 1.125q0.9375 1.109375 0.96875 3.328125l0 7.734375l-3.203125 0l0 -7.65625q0 -1.015625 -0.453125 -1.46875q-0.4375 -0.46875 -1.453125 -0.46875q-1.359375 0 -2.03125 1.15625l0 8.4375l-3.203125 0l0 -11.96875l3.015625 0zm14.7200775 9.609375q0.890625 0 1.4375 -0.484375q0.5625 -0.484375 0.578125 -1.296875l3.0 0q-0.015625 1.21875 -0.671875 2.234375q-0.640625 1.015625 -1.78125 1.578125q-1.125 0.546875 -2.5 0.546875q-2.578125 0 -4.0625 -1.625q-1.46875 -1.640625 -1.46875 -4.515625l0 -0.203125q0 -2.765625 1.46875 -4.40625q1.46875 -1.65625 4.03125 -1.65625q2.25 0 3.609375 1.28125q1.359375 1.265625 1.375 3.390625l-3.0 0q-0.015625 -0.921875 -0.578125 -1.5q-0.546875 -0.59375 -1.453125 -0.59375q-1.125 0 -1.703125 0.828125q-0.5625 0.8125 -0.5625 2.625l0 0.34375q0 1.84375 0.5625 2.65625q0.578125 0.796875 1.71875 0.796875zm12.34613 2.578125q-2.625 0 -4.28125 -1.609375q-1.65625 -1.625 -1.65625 -4.3125l0 -0.296875q0 -1.8125 0.6875 -3.234375q0.703125 -1.421875 1.984375 -2.1875q1.28125 -0.765625 2.921875 -0.765625q2.453125 0 3.859375 1.546875q1.40625 1.546875 1.40625 4.390625l0 1.3125l-7.625 0q0.15625 1.171875 0.9375 1.875q0.78125 0.703125 1.984375 0.703125q1.84375 0 2.875 -1.328125l1.578125 1.75q-0.71875 1.015625 -1.953125 1.59375q-1.21875 0.5625 -2.71875 0.5625zm-0.359375 -9.828125q-0.953125 0 -1.546875 0.65625q-0.59375 0.640625 -0.75 1.828125l4.4375 0l0 -0.25q-0.015625 -1.0625 -0.578125 -1.640625q-0.546875 -0.59375 -1.5625 -0.59375z" fill-rule="nonzero"/><path fill="#999999" d="m178.14699 544.44354l111.33858 0l0 74.20477l-111.33858 0z" fill-rule="evenodd"/><path stroke="#000000" stroke-width="1.0" stroke-linejoin="round" stroke-linecap="butt" d="m178.14699 544.44354l111.33858 0l0 74.20477l-111.33858 0z" fill-rule="evenodd"/><path fill="#ffffff" d="m188.63136 581.5728l0.875 -7.703125l8.484375 0l0 2.5l-6.015625 0l-0.375 3.265625q1.0625 -0.578125 2.28125 -0.578125q2.15625 0 3.375 1.34375q1.234375 1.34375 1.234375 3.765625q0 1.46875 -0.625 2.625q-0.609375 1.15625 -1.765625 1.796875q-1.15625 0.640625 -2.71875 0.640625q-1.375 0 -2.5625 -0.546875q-1.171875 -0.5625 -1.859375 -1.5625q-0.671875 -1.015625 -0.71875 -2.3125l2.984375 0q0.09375 0.953125 0.65625 1.484375q0.5625 0.515625 1.484375 0.515625q1.015625 0 1.5625 -0.734375q0.5625 -0.734375 0.5625 -2.078125q0 -1.296875 -0.640625 -1.984375q-0.625 -0.6875 -1.796875 -0.6875q-1.078125 0 -1.734375 0.5625l-0.296875 0.28125l-2.390625 -0.59375zm20.689728 1.75l1.71875 0l0 2.421875l-1.71875 0l0 3.28125l-3.015625 0l0 -3.28125l-6.21875 0l-0.125 -1.890625l6.3125 -9.984375l3.046875 0l0 9.453125zm-6.359375 0l3.34375 0l0 -5.359375l-0.1875 0.34375l-3.15625 5.015625zm12.752228 -3.21875l1.609375 0q1.140625 0 1.6875 -0.5625q0.5625 -0.578125 0.5625 -1.515625q0 -0.921875 -0.546875 -1.421875q-0.546875 -0.515625 -1.515625 -0.515625q-0.859375 0 -1.453125 0.46875q-0.578125 0.46875 -0.578125 1.234375l-3.0 0q0 -1.1875 0.640625 -2.125q0.640625 -0.953125 1.78125 -1.484375q1.15625 -0.53125 2.546875 -0.53125q2.40625 0 3.765625 1.15625q1.359375 1.15625 1.359375 3.171875q0 1.03125 -0.640625 1.90625q-0.625 0.875 -1.65625 1.34375q1.28125 0.46875 1.90625 1.390625q0.625 0.90625 0.625 2.15625q0 2.015625 -1.46875 3.234375q-1.46875 1.21875 -3.890625 1.21875q-2.28125 0 -3.71875 -1.1875q-1.4375 -1.203125 -1.4375 -3.171875l3.0 0q0 0.859375 0.640625 1.40625q0.640625 0.53125 1.578125 0.53125q1.078125 0 1.6875 -0.5625q0.609375 -0.578125 0.609375 -1.515625q0 -2.265625 -2.5 -2.265625l-1.59375 0l0 -2.359375zm30.187134 8.921875l-10.390625 0l0 -2.0625l4.90625 -5.234375q1.015625 -1.09375 1.5 -1.921875q0.484375 -0.828125 0.484375 -1.5625q0 -1.0 -0.515625 -1.578125q-0.515625 -0.578125 -1.453125 -0.578125q-1.03125 0 -1.625 0.703125q-0.578125 0.703125 -0.578125 1.84375l-3.015625 0q0 -1.390625 0.65625 -2.53125q0.65625 -1.140625 1.859375 -1.796875q1.21875 -0.65625 2.75 -0.65625q2.34375 0 3.640625 1.125q1.296875 1.125 1.296875 3.1875q0 1.109375 -0.59375 2.28125q-0.578125 1.171875 -1.984375 2.71875l-3.453125 3.640625l6.515625 0l0 2.421875zm12.049088 -6.265625q0 3.140625 -1.296875 4.8125q-1.2968597 1.65625 -3.8124847 1.65625q-2.484375 0 -3.796875 -1.625q-1.3125 -1.640625 -1.34375 -4.6875l0 -2.796875q0 -3.171875 1.3125 -4.8125q1.328125 -1.65625 3.796875 -1.65625q2.484375 0 3.7968597 1.640625q1.3125 1.625 1.34375 4.671875l0 2.796875zm-2.9999847 -3.0625q0 -1.890625 -0.515625 -2.75q-0.515625 -0.859375 -1.609375 -0.859375q-1.0625 0 -1.578125 0.828125q-0.5 0.8125 -0.53125 2.546875l0 3.6875q0 1.859375 0.5 2.765625q0.515625 0.890625 1.625 0.890625q1.109375 0 1.59375 -0.859375q0.484375 -0.875 0.515625 -2.65625l0 -3.59375zm13.205338 -5.984375l0 2.46875l-0.296875 0q-2.046875 0.03125 -3.296875 1.0625q-1.234375 1.03125 -1.484375 2.859375q1.203125 -1.21875 3.046875 -1.21875q1.984375 0 3.140625 1.421875q1.171875 1.40625 1.171875 3.71875q0 1.484375 -0.640625 2.6875q-0.640625 1.1875 -1.8125 1.859375q-1.171875 0.65625 -2.640625 0.65625q-2.40625 0 -3.875 -1.65625q-1.46875 -1.671875 -1.46875 -4.453125l0 -1.078125q0 -2.46875 0.921875 -4.359375q0.9375 -1.890625 2.671875 -2.921875q1.75 -1.046875 4.0625 -1.046875l0.5 0zm-2.9375 7.578125q-0.734375 0 -1.328125 0.390625q-0.59375 0.375 -0.875 1.0l0 0.921875q0 1.5 0.59375 2.359375q0.59375 0.84375 1.671875 0.84375q0.96875 0 1.5625 -0.765625q0.59375 -0.765625 0.59375 -1.984375q0 -1.234375 -0.609375 -2.0q-0.59375 -0.765625 -1.609375 -0.765625z" fill-rule="nonzero"/><path fill="#efefef" d="m353.7362 544.44354l111.33859 0l0 74.20477l-111.33859 0z" fill-rule="evenodd"/><path stroke="#000000" stroke-width="1.0" stroke-linejoin="round" stroke-linecap="butt" d="m353.7362 544.44354l111.33859 0l0 74.20477l-111.33859 0z" fill-rule="evenodd"/><path fill="#000000" d="m364.1737 589.8059l0 -16.109375l4.953125 0q2.125 0 3.796875 0.96875q1.6875 0.953125 2.625 2.71875q0.9375 1.75 0.9375 4.0l0 0.75q0 2.234375 -0.921875 3.984375q-0.921875 1.75 -2.609375 2.71875q-1.671875 0.953125 -3.796875 0.96875l-4.984375 0zm3.3125 -13.421875l0 10.75l1.609375 0q1.953125 0 2.96875 -1.265625q1.03125 -1.265625 1.0625 -3.640625l0 -0.859375q0 -2.453125 -1.015625 -3.71875q-1.015625 -1.265625 -2.984375 -1.265625l-1.640625 0zm14.58374 13.421875l-3.21875 0l0 -11.96875l3.21875 0l0 11.96875zm-3.40625 -15.0625q0 -0.71875 0.484375 -1.1875q0.484375 -0.46875 1.3125 -0.46875q0.8125 0 1.296875 0.46875q0.5 0.46875 0.5 1.1875q0 0.71875 -0.5 1.1875q-0.484375 0.46875 -1.296875 0.46875q-0.8125 0 -1.3125 -0.46875q-0.484375 -0.46875 -0.484375 -1.1875zm12.506989 11.75q0 -0.578125 -0.578125 -0.90625q-0.578125 -0.34375 -1.859375 -0.609375q-4.265625 -0.90625 -4.265625 -3.640625q0 -1.59375 1.3125 -2.65625q1.328125 -1.0625 3.46875 -1.0625q2.265625 0 3.625 1.078125q1.375 1.0625 1.375 2.78125l-3.1875 0q0 -0.6875 -0.453125 -1.125q-0.4375 -0.453125 -1.375 -0.453125q-0.8125 0 -1.25 0.359375q-0.4375 0.359375 -0.4375 0.921875q0 0.53125 0.5 0.859375q0.5 0.328125 1.6875 0.578125q1.203125 0.234375 2.015625 0.53125q2.53125 0.921875 2.53125 3.21875q0 1.640625 -1.40625 2.65625q-1.390625 1.0 -3.625 1.0q-1.5 0 -2.671875 -0.53125q-1.15625 -0.546875 -1.828125 -1.46875q-0.65625 -0.9375 -0.65625 -2.03125l3.03125 0q0.03125 0.859375 0.625 1.3125q0.59375 0.453125 1.578125 0.453125q0.90625 0 1.375 -0.34375q0.46875 -0.359375 0.46875 -0.921875zm9.008331 -11.59375l0 2.9375l2.046875 0l0 2.34375l-2.046875 0l0 5.96875q0 0.671875 0.25 0.96875q0.25 0.28125 0.96875 0.28125q0.53125 0 0.9375 -0.078125l0 2.421875q-0.9375 0.28125 -1.9375 0.28125q-3.359375 0 -3.421875 -3.390625l0 -6.453125l-1.75 0l0 -2.34375l1.75 0l0 -2.9375l3.203125 0zm10.764709 14.90625q-0.234375 -0.4375 -0.328125 -1.078125q-1.15625 1.296875 -3.015625 1.296875q-1.765625 0 -2.921875 -1.015625q-1.15625 -1.015625 -1.15625 -2.5625q0 -1.90625 1.40625 -2.921875q1.421875 -1.015625 4.078125 -1.03125l1.46875 0l0 -0.6875q0 -0.828125 -0.421875 -1.328125q-0.421875 -0.5 -1.34375 -0.5q-0.796875 0 -1.265625 0.390625q-0.453125 0.390625 -0.453125 1.0625l-3.203125 0q0 -1.046875 0.640625 -1.921875q0.640625 -0.890625 1.8125 -1.390625q1.171875 -0.5 2.640625 -0.5q2.203125 0 3.5 1.109375q1.3125 1.109375 1.3125 3.125l0 5.1875q0.015625 1.703125 0.46875 2.578125l0 0.1875l-3.21875 0zm-2.65625 -2.21875q0.71875 0 1.3125 -0.3125q0.59375 -0.328125 0.875 -0.859375l0 -2.046875l-1.1875 0q-2.40625 0 -2.5625 1.65625l0 0.1875q0 0.59375 0.421875 0.984375q0.421875 0.390625 1.140625 0.390625zm10.803009 -9.75l0.09375 1.375q1.28125 -1.59375 3.4375 -1.59375q1.90625 0 2.828125 1.125q0.9375 1.109375 0.96875 3.328125l0 7.734375l-3.203125 0l0 -7.65625q0 -1.015625 -0.453125 -1.46875q-0.4375 -0.46875 -1.453125 -0.46875q-1.359375 0 -2.03125 1.15625l0 8.4375l-3.203125 0l0 -11.96875l3.015625 0zm14.720062 9.609375q0.890625 0 1.4375 -0.484375q0.5625 -0.484375 0.578125 -1.296875l3.0 0q-0.015625 1.21875 -0.671875 2.234375q-0.640625 1.015625 -1.78125 1.578125q-1.125 0.546875 -2.5 0.546875q-2.578125 0 -4.0625 -1.625q-1.46875 -1.640625 -1.46875 -4.515625l0 -0.203125q0 -2.765625 1.46875 -4.40625q1.46875 -1.65625 4.03125 -1.65625q2.25 0 3.609375 1.28125q1.359375 1.265625 1.375 3.390625l-3.0 0q-0.015625 -0.921875 -0.578125 -1.5q-0.546875 -0.59375 -1.453125 -0.59375q-1.125 0 -1.703125 0.828125q-0.5625 0.8125 -0.5625 2.625l0 0.34375q0 1.84375 0.5625 2.65625q0.578125 0.796875 1.71875 0.796875zm12.34613 2.578125q-2.625 0 -4.28125 -1.609375q-1.65625 -1.625 -1.65625 -4.3125l0 -0.296875q0 -1.8125 0.6875 -3.234375q0.703125 -1.421875 1.984375 -2.1875q1.28125 -0.765625 2.921875 -0.765625q2.453125 0 3.859375 1.546875q1.40625 1.546875 1.40625 4.390625l0 1.3125l-7.625 0q0.15625 1.171875 0.9375 1.875q0.78125 0.703125 1.984375 0.703125q1.84375 0 2.875 -1.328125l1.578125 1.75q-0.71875 1.015625 -1.953125 1.59375q-1.21875 0.5625 -2.71875 0.5625zm-0.359375 -9.828125q-0.953125 0 -1.546875 0.65625q-0.59375 0.640625 -0.75 1.828125l4.4375 0l0 -0.25q-0.015625 -1.0625 -0.578125 -1.640625q-0.546875 -0.59375 -1.5625 -0.59375z" fill-rule="nonzero"/><path fill="#999999" d="m465.0761 544.44354l111.33856 0l0 74.20477l-111.33856 0z" fill-rule="evenodd"/><path stroke="#000000" stroke-width="1.0" stroke-linejoin="round" stroke-linecap="butt" d="m465.0761 544.44354l111.33856 0l0 74.20477l-111.33856 0z" fill-rule="evenodd"/><path fill="#ffffff" d="m502.82565 581.88403l0.921875 -8.1875l9.0312805 0l0 2.671875l-6.4062805 0l-0.40625 3.453125q1.140625 -0.609375 2.421875 -0.609375q2.3125 0 3.609375 1.4375q1.3125305 1.421875 1.3125305 3.984375q0 1.5625 -0.671875 2.796875q-0.6562805 1.234375 -1.8906555 1.921875q-1.21875 0.671875 -2.890625 0.671875q-1.453125 0 -2.703125 -0.59375q-1.25 -0.59375 -1.984375 -1.65625q-0.71875 -1.078125 -0.765625 -2.453125l3.171875 0q0.09375 1.015625 0.6875 1.578125q0.609375 0.546875 1.59375 0.546875q1.078125 0 1.65625 -0.78125q0.59375 -0.78125 0.59375 -2.203125q0 -1.375 -0.671875 -2.09375q-0.671875 -0.734375 -1.921875 -0.734375q-1.125 0 -1.84375 0.59375l-0.3125 0.28125l-2.53125 -0.625zm21.967316 1.859375l1.828125 0l0 2.578125l-1.828125 0l0 3.484375l-3.1875 0l0 -3.484375l-6.609375 0l-0.140625 -2.015625l6.71875 -10.609375l3.21875 0l0 10.046875zm-6.75 0l3.5625 0l0 -5.6875l-0.21875 0.359375l-3.34375 5.328125zm13.545471 -3.40625l1.703125 0q1.21875 0 1.796875 -0.609375q0.59375 -0.609375 0.59375 -1.609375q0 -0.984375 -0.578125 -1.515625q-0.578125 -0.546875 -1.59375 -0.546875q-0.921875 0 -1.546875 0.5q-0.609375 0.5 -0.609375 1.3125l-3.203125 0q0 -1.265625 0.671875 -2.265625q0.6875 -1.0 1.90625 -1.5625q1.234375 -0.5625 2.703125 -0.5625q2.546875 0 4.0 1.21875q1.453125 1.21875 1.453125 3.375q0 1.109375 -0.6875 2.046875q-0.671875 0.921875 -1.765625 1.40625q1.359375 0.5 2.03125 1.46875q0.671875 0.96875 0.671875 2.296875q0 2.140625 -1.5625 3.4375q-1.5625 1.296875 -4.140625 1.296875q-2.421875 0 -3.953125 -1.265625q-1.53125 -1.28125 -1.53125 -3.359375l3.203125 0q0 0.90625 0.671875 1.484375q0.6875 0.5625 1.6875 0.5625q1.140625 0 1.78125 -0.59375q0.640625 -0.609375 0.640625 -1.609375q0 -2.40625 -2.640625 -2.40625l-1.703125 0l0 -2.5z" fill-rule="nonzero"/><path fill="#000000" fill-opacity="0.0" d="m149.69423 629.7979l59.37007 0l0 46.86615l-59.37007 0z" fill-rule="evenodd"/><path fill="#000000" d="m167.5536 660.5579l-3.1875 0l0 -12.328125l-3.828125 1.1875l0 -2.59375l6.671875 -2.390625l0.34375 0l0 16.125zm16.076706 -6.65625q0 3.34375 -1.390625 5.109375q-1.375 1.765625 -4.046875 1.765625q-2.625 0 -4.03125 -1.734375q-1.390625 -1.734375 -1.421875 -4.984375l0 -2.953125q0 -3.375 1.390625 -5.125q1.40625 -1.75 4.03125 -1.75q2.640625 0 4.03125 1.734375q1.40625 1.734375 1.4375 4.96875l0 2.96875zm-3.203125 -3.25q0 -2.015625 -0.546875 -2.921875q-0.546875 -0.90625 -1.703125 -0.90625q-1.125 0 -1.671875 0.875q-0.53125 0.859375 -0.5625 2.703125l0 3.921875q0 1.96875 0.53125 2.921875q0.546875 0.953125 1.71875 0.953125q1.171875 0 1.6875 -0.90625q0.53125 -0.921875 0.546875 -2.8125l0 -3.828125zm13.123581 9.90625l-3.1875 0l0 -12.328125l-3.828125 1.1875l0 -2.59375l6.671875 -2.390625l0.34375 0l0 16.125z" fill-rule="nonzero"/><path fill="#000000" fill-opacity="0.0" d="m435.38452 629.7979l59.370087 0l0 46.86615l-59.370087 0z" fill-rule="evenodd"/><path fill="#000000" d="m456.52515 660.5579l-11.046875 0l0 -2.1875l5.21875 -5.5625q1.0625 -1.171875 1.578125 -2.046875q0.515625 -0.875 0.515625 -1.65625q0 -1.0625 -0.546875 -1.671875q-0.53125 -0.625 -1.546875 -0.625q-1.078125 0 -1.703125 0.75q-0.625 0.75 -0.625 1.953125l-3.203125 0q0 -1.46875 0.6875 -2.6875q0.703125 -1.21875 1.984375 -1.90625q1.296875 -0.6875 2.921875 -0.6875q2.484375 0 3.859375 1.203125q1.375 1.1875 1.375 3.359375q0 1.203125 -0.625 2.4375q-0.609375 1.234375 -2.109375 2.890625l-3.671875 3.859375l6.9375 0l0 2.578125zm12.795441 -6.65625q0 3.34375 -1.390625 5.109375q-1.375 1.765625 -4.046875 1.765625q-2.625 0 -4.03125 -1.734375q-1.390625 -1.734375 -1.421875 -4.984375l0 -2.953125q0 -3.375 1.390625 -5.125q1.40625 -1.75 4.03125 -1.75q2.640625 0 4.03125 1.734375q1.40625 1.734375 1.4375 4.96875l0 2.96875zm-3.203125 -3.25q0 -2.015625 -0.546875 -2.921875q-0.546875 -0.90625 -1.703125 -0.90625q-1.125 0 -1.671875 0.875q-0.53125 0.859375 -0.5625 2.703125l0 3.921875q0 1.96875 0.53125 2.921875q0.546875 0.953125 1.71875 0.953125q1.171875 0 1.6875 -0.90625q0.53125 -0.921875 0.546875 -2.8125l0 -3.828125zm14.029846 -6.359375l0 2.625l-0.3125 0q-2.15625 0.03125 -3.484375 1.125q-1.328125 1.09375 -1.59375 3.046875q1.296875 -1.3125 3.25 -1.3125q2.09375 0 3.328125 1.515625q1.25 1.5 1.25 3.953125q0 1.578125 -0.6875 2.859375q-0.671875 1.265625 -1.921875 1.96875q-1.234375 0.703125 -2.8125 0.703125q-2.546875 0 -4.109375 -1.765625q-1.5625 -1.765625 -1.5625 -4.71875l0 -1.15625q0 -2.625 0.984375 -4.625q1.0 -2.015625 2.84375 -3.109375q1.859375 -1.109375 4.296875 -1.109375l0.53125 0zm-3.109375 8.0625q-0.78125 0 -1.421875 0.40625q-0.625 0.390625 -0.921875 1.0625l0 0.96875q0 1.609375 0.625 2.515625q0.640625 0.890625 1.78125 0.890625q1.03125 0 1.65625 -0.8125q0.640625 -0.8125 0.640625 -2.109375q0 -1.3125 -0.640625 -2.109375q-0.640625 -0.8125 -1.71875 -0.8125z" fill-rule="nonzero"/><path fill="#efefef" d="m674.06696 544.44354l111.33856 0l0 74.20477l-111.33856 0z" fill-rule="evenodd"/><path stroke="#000000" stroke-width="1.0" stroke-linejoin="round" stroke-linecap="butt" d="m674.06696 544.44354l111.33856 0l0 74.20477l-111.33856 0z" fill-rule="evenodd"/><path fill="#000000" d="m684.50446 589.8059l0 -16.109375l4.953125 0q2.125 0 3.796875 0.96875q1.6875 0.953125 2.625 2.71875q0.9375 1.75 0.9375 4.0l0 0.75q0 2.234375 -0.921875 3.984375q-0.921875 1.75 -2.609375 2.71875q-1.671875 0.953125 -3.796875 0.96875l-4.984375 0zm3.3125 -13.421875l0 10.75l1.609375 0q1.953125 0 2.96875 -1.265625q1.03125 -1.265625 1.0625 -3.640625l0 -0.859375q0 -2.453125 -1.015625 -3.71875q-1.015625 -1.265625 -2.984375 -1.265625l-1.640625 0zm14.583679 13.421875l-3.21875 0l0 -11.96875l3.21875 0l0 11.96875zm-3.40625 -15.0625q0 -0.71875 0.484375 -1.1875q0.484375 -0.46875 1.3125 -0.46875q0.8125 0 1.296875 0.46875q0.5 0.46875 0.5 1.1875q0 0.71875 -0.5 1.1875q-0.484375 0.46875 -1.296875 0.46875q-0.8125 0 -1.3125 -0.46875q-0.484375 -0.46875 -0.484375 -1.1875zm12.507019 11.75q0 -0.578125 -0.578125 -0.90625q-0.578125 -0.34375 -1.859375 -0.609375q-4.265625 -0.90625 -4.265625 -3.640625q0 -1.59375 1.3125 -2.65625q1.328125 -1.0625 3.46875 -1.0625q2.265625 0 3.625 1.078125q1.375 1.0625 1.375 2.78125l-3.1875 0q0 -0.6875 -0.453125 -1.125q-0.4375 -0.453125 -1.375 -0.453125q-0.8125 0 -1.25 0.359375q-0.4375 0.359375 -0.4375 0.921875q0 0.53125 0.5 0.859375q0.5 0.328125 1.6875 0.578125q1.203125 0.234375 2.015625 0.53125q2.53125 0.921875 2.53125 3.21875q0 1.640625 -1.40625 2.65625q-1.390625 1.0 -3.625 1.0q-1.5 0 -2.671875 -0.53125q-1.15625 -0.546875 -1.828125 -1.46875q-0.65625 -0.9375 -0.65625 -2.03125l3.03125 0q0.03125 0.859375 0.625 1.3125q0.59375 0.453125 1.578125 0.453125q0.90625 0 1.375 -0.34375q0.46875 -0.359375 0.46875 -0.921875zm9.008301 -11.59375l0 2.9375l2.046875 0l0 2.34375l-2.046875 0l0 5.96875q0 0.671875 0.25 0.96875q0.25 0.28125 0.96875 0.28125q0.53125 0 0.9375 -0.078125l0 2.421875q-0.9375 0.28125 -1.9375 0.28125q-3.359375 0 -3.421875 -3.390625l0 -6.453125l-1.75 0l0 -2.34375l1.75 0l0 -2.9375l3.203125 0zm10.764709 14.90625q-0.234375 -0.4375 -0.328125 -1.078125q-1.15625 1.296875 -3.015625 1.296875q-1.765625 0 -2.921875 -1.015625q-1.15625 -1.015625 -1.15625 -2.5625q0 -1.90625 1.40625 -2.921875q1.421875 -1.015625 4.078125 -1.03125l1.46875 0l0 -0.6875q0 -0.828125 -0.421875 -1.328125q-0.421875 -0.5 -1.34375 -0.5q-0.796875 0 -1.265625 0.390625q-0.453125 0.390625 -0.453125 1.0625l-3.203125 0q0 -1.046875 0.640625 -1.921875q0.640625 -0.890625 1.8125 -1.390625q1.171875 -0.5 2.640625 -0.5q2.203125 0 3.5 1.109375q1.3125 1.109375 1.3125 3.125l0 5.1875q0.015625 1.703125 0.46875 2.578125l0 0.1875l-3.21875 0zm-2.65625 -2.21875q0.71875 0 1.3125 -0.3125q0.59375 -0.328125 0.875 -0.859375l0 -2.046875l-1.1875 0q-2.40625 0 -2.5625 1.65625l0 0.1875q0 0.59375 0.421875 0.984375q0.421875 0.390625 1.140625 0.390625zm10.80304 -9.75l0.09375 1.375q1.28125 -1.59375 3.4375 -1.59375q1.90625 0 2.828125 1.125q0.9375 1.109375 0.96875 3.328125l0 7.734375l-3.203125 0l0 -7.65625q0 -1.015625 -0.453125 -1.46875q-0.4375 -0.46875 -1.453125 -0.46875q-1.359375 0 -2.03125 1.15625l0 8.4375l-3.203125 0l0 -11.96875l3.015625 0zm14.720093 9.609375q0.890625 0 1.4375 -0.484375q0.5625 -0.484375 0.578125 -1.296875l3.0 0q-0.015625 1.21875 -0.671875 2.234375q-0.640625 1.015625 -1.78125 1.578125q-1.125 0.546875 -2.5 0.546875q-2.578125 0 -4.0625 -1.625q-1.46875 -1.640625 -1.46875 -4.515625l0 -0.203125q0 -2.765625 1.46875 -4.40625q1.46875 -1.65625 4.03125 -1.65625q2.25 0 3.609375 1.28125q1.359375 1.265625 1.375 3.390625l-3.0 0q-0.015625 -0.921875 -0.578125 -1.5q-0.546875 -0.59375 -1.453125 -0.59375q-1.125 0 -1.703125 0.828125q-0.5625 0.8125 -0.5625 2.625l0 0.34375q0 1.84375 0.5625 2.65625q0.578125 0.796875 1.71875 0.796875zm12.34613 2.578125q-2.625 0 -4.28125 -1.609375q-1.65625 -1.625 -1.65625 -4.3125l0 -0.296875q0 -1.8125 0.6875 -3.234375q0.703125 -1.421875 1.984375 -2.1875q1.28125 -0.765625 2.921875 -0.765625q2.453125 0 3.859375 1.546875q1.40625 1.546875 1.40625 4.390625l0 1.3125l-7.625 0q0.15625 1.171875 0.9375 1.875q0.78125 0.703125 1.984375 0.703125q1.84375 0 2.875 -1.328125l1.578125 1.75q-0.71875 1.015625 -1.953125 1.59375q-1.21875 0.5625 -2.71875 0.5625zm-0.359375 -9.828125q-0.953125 0 -1.546875 0.65625q-0.59375 0.640625 -0.75 1.828125l4.4375 0l0 -0.25q-0.015625 -1.0625 -0.578125 -1.640625q-0.546875 -0.59375 -1.5625 -0.59375z" fill-rule="nonzero"/><path fill="#999999" d="m785.4068 544.44354l111.33862 0l0 74.20477l-111.33862 0z" fill-rule="evenodd"/><path stroke="#000000" stroke-width="1.0" stroke-linejoin="round" stroke-linecap="butt" d="m785.4068 544.44354l111.33862 0l0 74.20477l-111.33862 0z" fill-rule="evenodd"/><path fill="#ffffff" d="m826.5577 577.83716l0.09375 1.375q1.28125 -1.59375 3.4375 -1.59375q1.90625 0 2.828125 1.125q0.9375 1.109375 0.96875 3.328125l0 7.734375l-3.203125 0l0 -7.65625q0 -1.015625 -0.453125 -1.46875q-0.4375 -0.46875 -1.453125 -0.46875q-1.359375 0 -2.03125 1.15625l0 8.4375l-3.203125 0l0 -11.96875l3.015625 0zm16.907593 10.75q-1.171875 1.4375 -3.265625 1.4375q-1.921875 0 -2.9375 -1.09375q-1.015625 -1.109375 -1.03125 -3.25l0 -7.84375l3.1875 0l0 7.734375q0 1.859375 1.703125 1.859375q1.625 0 2.234375 -1.125l0 -8.46875l3.21875 0l0 11.96875l-3.015625 0l-0.09375 -1.21875zm8.896484 1.21875l-3.21875 0l0 -17.0l3.21875 0l0 17.0zm6.007019 0l-3.21875 0l0 -17.0l3.21875 0l0 17.0z" fill-rule="nonzero"/><path fill="#000000" fill-opacity="0.0" d="m755.7152 629.7979l59.370117 0l0 46.86615l-59.370117 0z" fill-rule="evenodd"/><path fill="#000000" d="m766.29333 652.63605l0.921875 -8.1875l9.03125 0l0 2.671875l-6.40625 0l-0.40625 3.453125q1.140625 -0.609375 2.421875 -0.609375q2.3125 0 3.609375 1.4375q1.3125 1.421875 1.3125 3.984375q0 1.5625 -0.671875 2.796875q-0.65625 1.234375 -1.890625 1.921875q-1.21875 0.671875 -2.890625 0.671875q-1.453125 0 -2.703125 -0.59375q-1.25 -0.59375 -1.984375 -1.65625q-0.71875 -1.078125 -0.765625 -2.453125l3.171875 0q0.09375 1.015625 0.6875 1.578125q0.609375 0.546875 1.59375 0.546875q1.078125 0 1.65625 -0.78125q0.59375 -0.78125 0.59375 -2.203125q0 -1.375 -0.671875 -2.09375q-0.671875 -0.734375 -1.921875 -0.734375q-1.125 0 -1.84375 0.59375l-0.3125 0.28125l-2.53125 -0.625zm21.967346 1.859375l1.828125 0l0 2.578125l-1.828125 0l0 3.484375l-3.1875 0l0 -3.484375l-6.609375 0l-0.140625 -2.015625l6.71875 -10.609375l3.21875 0l0 10.046875zm-6.75 0l3.5625 0l0 -5.6875l-0.21875 0.359375l-3.34375 5.328125zm13.545471 -3.40625l1.703125 0q1.21875 0 1.796875 -0.609375q0.59375 -0.609375 0.59375 -1.609375q0 -0.984375 -0.578125 -1.515625q-0.578125 -0.546875 -1.59375 -0.546875q-0.921875 0 -1.546875 0.5q-0.609375 0.5 -0.609375 1.3125l-3.203125 0q0 -1.265625 0.671875 -2.265625q0.6875 -1.0 1.90625 -1.5625q1.234375 -0.5625 2.703125 -0.5625q2.546875 0 4.0 1.21875q1.453125 1.21875 1.453125 3.375q0 1.109375 -0.6875 2.046875q-0.671875 0.921875 -1.765625 1.40625q1.359375 0.5 2.03125 1.46875q0.671875 0.96875 0.671875 2.296875q0 2.140625 -1.5625 3.4375q-1.5625 1.296875 -4.140625 1.296875q-2.421875 0 -3.953125 -1.265625q-1.53125 -1.28125 -1.53125 -3.359375l3.203125 0q0 0.90625 0.671875 1.484375q0.6875 0.5625 1.6875 0.5625q1.140625 0 1.78125 -0.59375q0.640625 -0.609375 0.640625 -1.609375q0 -2.40625 -2.640625 -2.40625l-1.703125 0l0 -2.5z" fill-rule="nonzero"/><path fill="#efefef" d="m56.912075 396.4908l74.29921 0l0 60.6929l-74.29921 0z" fill-rule="evenodd"/><path stroke="#000000" stroke-width="1.0" stroke-linejoin="round" stroke-linecap="butt" d="m56.912075 396.4908l74.29921 0l0 60.6929l-74.29921 0z" fill-rule="evenodd"/><path fill="#000000" d="m80.45895 435.09726l-3.3125 0l0 -6.90625l-6.484375 0l0 6.90625l-3.3125 0l0 -16.109375l3.3125 0l0 6.53125l6.484375 0l0 -6.53125l3.3125 0l0 16.109375zm8.195114 0.21875q-2.625 0 -4.28125 -1.609375q-1.65625 -1.625 -1.65625 -4.3125l0 -0.296875q0 -1.8125 0.6875 -3.234375q0.703125 -1.421875 1.984375 -2.1875q1.28125 -0.765625 2.921875 -0.765625q2.453125 0 3.859375 1.546875q1.40625 1.546875 1.40625 4.390625l0 1.3125l-7.625 0q0.15625 1.171875 0.9375 1.875q0.78125 0.703125 1.984375 0.703125q1.84375 0 2.875 -1.328125l1.578125 1.75q-0.71875 1.015625 -1.953125 1.59375q-1.21875 0.5625 -2.71875 0.5625zm-0.359375 -9.828125q-0.953125 0 -1.546875 0.65625q-0.59375 0.640625 -0.75 1.828125l4.4375 0l0 -0.25q-0.015625 -1.0625 -0.578125 -1.640625q-0.546875 -0.59375 -1.5625 -0.59375zm14.043198 9.609375q-0.234375 -0.4375 -0.328125 -1.078125q-1.15625 1.296875 -3.015625 1.296875q-1.765625 0 -2.921875 -1.015625q-1.15625 -1.015625 -1.15625 -2.5625q0 -1.90625 1.40625 -2.921875q1.421875 -1.015625 4.078125 -1.03125l1.46875 0l0 -0.6875q0 -0.828125 -0.421875 -1.328125q-0.421875 -0.5 -1.34375 -0.5q-0.796875 0 -1.265625 0.390625q-0.453125 0.390625 -0.453125 1.0625l-3.203125 0q0 -1.046875 0.640625 -1.921875q0.640625 -0.890625 1.8125 -1.390625q1.171875 -0.5 2.640625 -0.5q2.203125 0 3.5 1.109375q1.3125 1.109375 1.3125 3.125l0 5.1875q0.015625 1.703125 0.46875 2.578125l0 0.1875l-3.21875 0zm-2.65625 -2.21875q0.71875 0 1.3125 -0.3125q0.59375 -0.328125 0.875 -0.859375l0 -2.046875l-1.1875 0q-2.40625 0 -2.5625 1.65625l0 0.1875q0 0.59375 0.421875 0.984375q0.421875 0.390625 1.140625 0.390625zm7.365509 -3.859375q0 -2.796875 1.25 -4.453125q1.25 -1.65625 3.4375 -1.65625q1.75 0 2.890625 1.296875l0 -6.109375l3.203125 0l0 17.0l-2.890625 0l-0.15625 -1.265625q-1.1875 1.484375 -3.0625 1.484375q-2.125 0 -3.40625 -1.65625q-1.265625 -1.671875 -1.265625 -4.640625zm3.1875 0.234375q0 1.6875 0.578125 2.578125q0.59375 0.890625 1.71875 0.890625q1.484375 0 2.09375 -1.25l0 -4.71875q-0.609375 -1.25 -2.078125 -1.25q-2.3125 0 -2.3125 3.75z" fill-rule="nonzero"/><path fill="#000000" fill-opacity="0.0" d="m56.912075 426.83728l-25.000038 0l0 154.70868l34.889797 0" fill-rule="evenodd"/><path stroke="#000000" stroke-width="2.0" stroke-linejoin="round" stroke-linecap="butt" d="m56.912075 426.83728l-25.000038 0l0 154.70868l34.889797 0" fill-rule="evenodd"/><path fill="#000000" fill-opacity="0.0" d="m92.791336 466.19684l59.370087 0l0 42.015747l-59.370087 0z" fill-rule="evenodd"/><path fill="#000000" d="m102.978836 493.11685l0 -13.265625l4.078125 0q1.75 0 3.125 0.796875q1.390625 0.78125 2.15625 2.234375q0.78125 1.453125 0.78125 3.296875l0 0.609375q0 1.859375 -0.765625 3.296875q-0.765625 1.4375 -2.15625 2.234375q-1.375 0.78125 -3.109375 0.796875l-4.109375 0zm2.734375 -11.046875l0 8.84375l1.3125 0q1.609375 0 2.453125 -1.046875q0.84375 -1.046875 0.859375 -2.984375l0 -0.703125q0 -2.03125 -0.84375 -3.0625q-0.828125 -1.046875 -2.4375 -1.046875l-1.34375 0zm14.921616 11.046875q-0.171875 -0.359375 -0.265625 -0.890625q-0.953125 1.078125 -2.484375 1.078125q-1.453125 0 -2.40625 -0.84375q-0.9375 -0.84375 -0.9375 -2.109375q0 -1.578125 1.15625 -2.40625q1.15625 -0.84375 3.359375 -0.84375l1.203125 0l0 -0.578125q0 -0.671875 -0.359375 -1.078125q-0.34375 -0.421875 -1.09375 -0.421875q-0.65625 0 -1.046875 0.328125q-0.375 0.3125 -0.375 0.875l-2.625 0q0 -0.859375 0.515625 -1.578125q0.53125 -0.734375 1.5 -1.140625q0.96875 -0.421875 2.171875 -0.421875q1.8125 0 2.875 0.921875q1.078125 0.90625 1.078125 2.5625l0 4.265625q0.015625 1.40625 0.390625 2.125l0 0.15625l-2.65625 0zm-2.171875 -1.828125q0.578125 0 1.0625 -0.25q0.5 -0.265625 0.734375 -0.703125l0 -1.703125l-0.984375 0q-1.96875 0 -2.09375 1.375l-0.015625 0.15625q0 0.484375 0.34375 0.8125q0.34375 0.3125 0.953125 0.3125zm9.611603 -10.453125l0 2.421875l1.6875 0l0 1.9375l-1.6875 0l0 4.921875q0 0.546875 0.203125 0.78125q0.21875 0.234375 0.8125 0.234375q0.4375 0 0.78125 -0.0625l0 2.0q-0.78125 0.234375 -1.59375 0.234375q-2.78125 0 -2.828125 -2.796875l0 -5.3125l-1.4375 0l0 -1.9375l1.4375 0l0 -2.421875l2.625 0zm8.866272 12.28125q-0.171875 -0.359375 -0.265625 -0.890625q-0.953125 1.078125 -2.484375 1.078125q-1.453125 0 -2.40625 -0.84375q-0.9375 -0.84375 -0.9375 -2.109375q0 -1.578125 1.15625 -2.40625q1.15625 -0.84375 3.359375 -0.84375l1.203125 0l0 -0.578125q0 -0.671875 -0.359375 -1.078125q-0.34375 -0.421875 -1.09375 -0.421875q-0.65625 0 -1.046875 0.328125q-0.375 0.3125 -0.375 0.875l-2.625 0q0 -0.859375 0.515625 -1.578125q0.53125 -0.734375 1.5 -1.140625q0.96875 -0.421875 2.171875 -0.421875q1.8125 0 2.875 0.921875q1.078125 0.90625 1.078125 2.5625l0 4.265625q0.015625 1.40625 0.390625 2.125l0 0.15625l-2.65625 0zm-2.171875 -1.828125q0.578125 0 1.0625 -0.25q0.5 -0.265625 0.734375 -0.703125l0 -1.703125l-0.984375 0q-1.96875 0 -2.09375 1.375l-0.015625 0.15625q0 0.484375 0.34375 0.8125q0.34375 0.3125 0.953125 0.3125z" fill-rule="nonzero"/><path fill="#000000" fill-opacity="0.0" d="m122.47638 508.2126l0 36.22046" fill-rule="evenodd"/><path stroke="#000000" stroke-width="2.0" stroke-linejoin="round" stroke-linecap="butt" d="m122.47638 508.2126l0 24.220459" fill-rule="evenodd"/><path fill="#000000" stroke="#000000" stroke-width="2.0" stroke-linecap="butt" d="m119.17291 532.43304l3.3034668 9.076233l3.3034668 -9.076233z" fill-rule="evenodd"/><path fill="#000000" fill-opacity="0.0" d="m204.13255 465.0735l59.37007 0l0 42.015747l-59.37007 0z" fill-rule="evenodd"/><path fill="#000000" d="m225.10455 487.32162l0 4.671875l-2.734375 0l0 -13.265625l5.171875 0q1.5 0 2.625 0.546875q1.140625 0.546875 1.75 1.5625q0.609375 1.0 0.609375 2.28125q0 1.953125 -1.34375 3.078125q-1.328125 1.125 -3.6875 1.125l-2.390625 0zm0 -2.21875l2.4375 0q1.078125 0 1.640625 -0.5q0.578125 -0.515625 0.578125 -1.46875q0 -0.96875 -0.578125 -1.5625q-0.5625 -0.609375 -1.578125 -0.625l-2.5 0l0 4.15625zm12.39563 -5.390625l0 2.421875l1.6875 0l0 1.9375l-1.6875 0l0 4.921875q0 0.546875 0.203125 0.78125q0.21875 0.234375 0.8125 0.234375q0.4375 0 0.78125 -0.0625l0 2.0q-0.78125 0.234375 -1.59375 0.234375q-2.78125 0 -2.828125 -2.796875l0 -5.3125l-1.4375 0l0 -1.9375l1.4375 0l0 -2.421875l2.625 0zm8.694397 4.890625q-0.53125 -0.0625 -0.9375 -0.0625q-1.5 0 -1.96875 1.0l0 6.453125l-2.625 0l0 -9.859375l2.484375 0l0.078125 1.171875q0.78125 -1.34375 2.1875 -1.34375q0.4375 0 0.828125 0.109375l-0.046875 2.53125z" fill-rule="nonzero"/><path fill="#000000" fill-opacity="0.0" d="m233.81758 507.08923l0 36.22046" fill-rule="evenodd"/><path stroke="#000000" stroke-width="2.0" stroke-linejoin="round" stroke-linecap="butt" d="m233.81758 507.08923l0 24.220459" fill-rule="evenodd"/><path fill="#000000" stroke="#000000" stroke-width="2.0" stroke-linecap="butt" d="m230.51411 531.3097l3.3034668 9.076233l3.3034668 -9.076233z" fill-rule="evenodd"/><path fill="#000000" fill-opacity="0.0" d="m289.48557 581.54596l64.25195 0" fill-rule="evenodd"/><path stroke="#cc0000" stroke-width="3.0" stroke-linejoin="round" stroke-linecap="butt" d="m289.48557 581.54596l46.251953 0" fill-rule="evenodd"/><path fill="#cc0000" stroke="#cc0000" stroke-width="3.0" stroke-linecap="butt" d="m335.73752 586.5011l13.614319 -4.955139l-13.614319 -4.9552z" fill-rule="evenodd"/><path fill="#000000" fill-opacity="0.0" d="m576.4147 581.54596l97.63782 0" fill-rule="evenodd"/><path stroke="#cc0000" stroke-width="3.0" stroke-linejoin="round" stroke-linecap="butt" d="m576.4147 581.54596l79.63782 0" fill-rule="evenodd"/><path fill="#cc0000" stroke="#cc0000" stroke-width="3.0" stroke-linecap="butt" d="m656.0525 586.5011l13.614319 -4.955139l-13.614319 -4.9552z" fill-rule="evenodd"/><path fill="#efefef" d="m828.7887 405.50394l74.299255 0l0 60.6929l-74.299255 0z" fill-rule="evenodd"/><path stroke="#000000" stroke-width="1.0" stroke-linejoin="round" stroke-linecap="butt" d="m828.7887 405.50394l74.299255 0l0 60.6929l-74.299255 0z" fill-rule="evenodd"/><path fill="#000000" d="m851.4199 432.14163l0.09375 1.375q1.28125 -1.59375 3.4375 -1.59375q1.90625 0 2.828125 1.125q0.9375 1.109375 0.96875 3.328125l0 7.734375l-3.203125 0l0 -7.65625q0 -1.015625 -0.453125 -1.46875q-0.4375 -0.46875 -1.453125 -0.46875q-1.359375 0 -2.03125 1.15625l0 8.4375l-3.203125 0l0 -11.96875l3.015625 0zm16.907532 10.75q-1.171875 1.4375 -3.265625 1.4375q-1.921875 0 -2.9375 -1.09375q-1.015625 -1.109375 -1.03125 -3.25l0 -7.84375l3.1875 0l0 7.734375q0 1.859375 1.703125 1.859375q1.625 0 2.234375 -1.125l0 -8.46875l3.21875 0l0 11.96875l-3.015625 0l-0.09375 -1.21875zm8.896545 1.21875l-3.21875 0l0 -17.0l3.21875 0l0 17.0zm6.007019 0l-3.21875 0l0 -17.0l3.21875 0l0 17.0z" fill-rule="nonzero"/><path fill="#000000" fill-opacity="0.0" d="m896.7572 581.5512l0 1.0971069l31.330688 0l0 -146.79791l-24.999939 0" fill-rule="evenodd"/><path stroke="#000000" stroke-width="1.0" stroke-linejoin="round" stroke-linecap="butt" d="m896.7572 581.5512l0 1.0971069l31.330688 0l0 -146.79791l-24.999939 0" fill-rule="evenodd"/><path fill="#000000" fill-opacity="0.0" d="m190.50394 592.7428l32.157486 -22.393738" fill-rule="evenodd"/><path stroke="#cc0000" stroke-width="4.0" stroke-linejoin="round" stroke-linecap="butt" d="m190.50394 592.7428l32.157486 -22.393738" fill-rule="evenodd"/><path fill="#000000" fill-opacity="0.0" d="m471.92725 465.0735l97.63782 0l0 42.015747l-97.63782 0z" fill-rule="evenodd"/><path fill="#000000" d="m499.2739 491.9935l-2.734375 0l-5.3125 -8.734375l0 8.734375l-2.734375 0l0 -13.265625l2.734375 0l5.328125 8.75l0 -8.75l2.71875 0l0 13.265625zm6.750458 0.1875q-2.171875 0 -3.53125 -1.328125q-1.359375 -1.34375 -1.359375 -3.546875l0 -0.265625q0 -1.484375 0.5625 -2.640625q0.578125 -1.171875 1.625 -1.796875q1.0625 -0.640625 2.40625 -0.640625q2.03125 0 3.1875 1.28125q1.15625 1.265625 1.15625 3.609375l0 1.0625l-6.265625 0q0.125 0.96875 0.765625 1.5625q0.640625 0.578125 1.625 0.578125q1.515625 0 2.375 -1.109375l1.296875 1.453125q-0.59375 0.84375 -1.609375 1.3125q-1.0 0.46875 -2.234375 0.46875zm-0.296875 -8.09375q-0.78125 0 -1.28125 0.53125q-0.484375 0.53125 -0.609375 1.515625l3.65625 0l0 -0.21875q-0.015625 -0.875 -0.484375 -1.34375q-0.453125 -0.484375 -1.28125 -0.484375zm14.4123535 4.328125l1.296875 -6.28125l2.546875 0l-2.515625 9.859375l-2.203125 0l-1.875 -6.203125l-1.859375 6.203125l-2.203125 0l-2.5156555 -9.859375l2.5469055 0l1.28125 6.265625l1.8125 -6.265625l1.890625 0l1.796875 6.28125zm12.699341 -1.09375l0 4.671875l-2.734375 0l0 -13.265625l5.171875 0q1.500061 0 2.625061 0.546875q1.140625 0.546875 1.75 1.5625q0.609375 1.0 0.609375 2.28125q0 1.953125 -1.34375 3.078125q-1.328125 1.125 -3.687561 1.125l-2.390625 0zm0 -2.21875l2.4375 0q1.078186 0 1.640686 -0.5q0.578125 -0.515625 0.578125 -1.46875q0 -0.96875 -0.578125 -1.5625q-0.5625 -0.609375 -1.578186 -0.625l-2.5 0l0 4.15625zm12.395691 -5.390625l0 2.421875l1.6875 0l0 1.9375l-1.6875 0l0 4.921875q0 0.546875 0.203125 0.78125q0.21875 0.234375 0.8125 0.234375q0.4375 0 0.78125 -0.0625l0 2.0q-0.78125 0.234375 -1.59375 0.234375q-2.78125 0 -2.828125 -2.796875l0 -5.3125l-1.4375 0l0 -1.9375l1.4375 0l0 -2.421875l2.625 0zm8.694397 4.890625q-0.53125 -0.0625 -0.9375 -0.0625q-1.5 0 -1.96875 1.0l0 6.453125l-2.625 0l0 -9.859375l2.484375 0l0.078125 1.171875q0.78125 -1.34375 2.1875 -1.34375q0.4375 0 0.828125 0.109375l-0.046875 2.53125z" fill-rule="nonzero"/><path fill="#000000" fill-opacity="0.0" d="m520.74615 507.08923l0 36.22046" fill-rule="evenodd"/><path stroke="#000000" stroke-width="2.0" stroke-linejoin="round" stroke-linecap="butt" d="m520.74615 507.08923l0 24.220459" fill-rule="evenodd"/><path fill="#000000" stroke="#000000" stroke-width="2.0" stroke-linecap="butt" d="m517.4427 531.3097l3.3034668 9.076233l3.3034668 -9.076233z" fill-rule="evenodd"/><path fill="#000000" fill-opacity="0.0" d="m630.3228 676.66406l323.87402 0l0 42.015747l-323.87402 0z" fill-rule="evenodd"/><path fill="#000000" d="m650.91656 699.1622q-0.15625 2.140625 -1.578125 3.375q-1.421875 1.234375 -3.75 1.234375q-2.5625 0 -4.03125 -1.71875q-1.453125 -1.71875 -1.453125 -4.71875l0 -0.8125q0 -1.90625 0.671875 -3.359375q0.671875 -1.46875 1.921875 -2.25q1.265625 -0.78125 2.921875 -0.78125q2.296875 0 3.6875 1.234375q1.40625 1.234375 1.625 3.453125l-2.734375 0q-0.09375 -1.28125 -0.71875 -1.859375q-0.609375 -0.578125 -1.859375 -0.578125q-1.375 0 -2.046875 0.984375q-0.671875 0.96875 -0.703125 3.03125l0 1.0q0 2.15625 0.65625 3.15625q0.65625 0.984375 2.0625 0.984375q1.265625 0 1.875 -0.578125q0.625 -0.578125 0.71875 -1.796875l2.734375 0zm7.159851 -2.96875q-0.53125 -0.0625 -0.9375 -0.0625q-1.5 0 -1.96875 1.0l0 6.453125l-2.625 0l0 -9.859375l2.484375 0l0.078125 1.171875q0.78125 -1.34375 2.1875 -1.34375q0.4375 0 0.828125 0.109375l-0.046875 2.53125zm5.631653 7.578125q-2.171875 0 -3.53125 -1.328125q-1.359375 -1.34375 -1.359375 -3.546875l0 -0.265625q0 -1.484375 0.5625 -2.640625q0.578125 -1.171875 1.625 -1.796875q1.0625 -0.640625 2.40625 -0.640625q2.03125 0 3.1875 1.28125q1.15625 1.265625 1.15625 3.609375l0 1.0625l-6.265625 0q0.125 0.96875 0.765625 1.5625q0.640625 0.578125 1.625 0.578125q1.515625 0 2.375 -1.109375l1.296875 1.453125q-0.59375 0.84375 -1.609375 1.3125q-1.0 0.46875 -2.234375 0.46875zm-0.296875 -8.09375q-0.78125 0 -1.28125 0.53125q-0.484375 0.53125 -0.609375 1.515625l3.65625 0l0 -0.21875q-0.015625 -0.875 -0.484375 -1.34375q-0.453125 -0.484375 -1.28125 -0.484375zm11.5529785 7.90625q-0.171875 -0.359375 -0.265625 -0.890625q-0.953125 1.078125 -2.484375 1.078125q-1.453125 0 -2.40625 -0.84375q-0.9375 -0.84375 -0.9375 -2.109375q0 -1.578125 1.15625 -2.40625q1.15625 -0.84375 3.359375 -0.84375l1.203125 0l0 -0.578125q0 -0.671875 -0.359375 -1.078125q-0.34375 -0.421875 -1.09375 -0.421875q-0.65625 0 -1.046875 0.328125q-0.375 0.3125 -0.375 0.875l-2.625 0q0 -0.859375 0.515625 -1.578125q0.53125 -0.734375 1.5 -1.140625q0.96875 -0.421875 2.171875 -0.421875q1.8125 0 2.875 0.921875q1.078125 0.90625 1.078125 2.5625l0 4.265625q0.015625 1.40625 0.390625 2.125l0 0.15625l-2.65625 0zm-2.171875 -1.828125q0.578125 0 1.0625 -0.25q0.5 -0.265625 0.734375 -0.703125l0 -1.703125l-0.984375 0q-1.96875 0 -2.09375 1.375l-0.015625 0.15625q0 0.484375 0.34375 0.8125q0.34375 0.3125 0.953125 0.3125zm9.611572 -10.453125l0 2.421875l1.6875 0l0 1.9375l-1.6875 0l0 4.921875q0 0.546875 0.203125 0.78125q0.21875 0.234375 0.8125 0.234375q0.4375 0 0.78125 -0.0625l0 2.0q-0.78125 0.234375 -1.59375 0.234375q-2.78125 0 -2.828125 -2.796875l0 -5.3125l-1.4375 0l0 -1.9375l1.4375 0l0 -2.421875l2.625 0zm7.694397 12.46875q-2.171875 0 -3.53125 -1.328125q-1.359375 -1.34375 -1.359375 -3.546875l0 -0.265625q0 -1.484375 0.5625 -2.640625q0.578125 -1.171875 1.625 -1.796875q1.0625 -0.640625 2.40625 -0.640625q2.03125 0 3.1875 1.28125q1.15625 1.265625 1.15625 3.609375l0 1.0625l-6.265625 0q0.125 0.96875 0.765625 1.5625q0.640625 0.578125 1.625 0.578125q1.515625 0 2.375 -1.109375l1.296875 1.453125q-0.59375 0.84375 -1.609375 1.3125q-1.0 0.46875 -2.234375 0.46875zm-0.296875 -8.09375q-0.78125 0 -1.28125 0.53125q-0.484375 0.53125 -0.609375 1.515625l3.65625 0l0 -0.21875q-0.015625 -0.875 -0.484375 -1.34375q-0.453125 -0.484375 -1.28125 -0.484375zm5.4279785 2.90625q0 -2.3125 1.03125 -3.671875q1.046875 -1.359375 2.84375 -1.359375q1.4375 0 2.375 1.0625l0 -5.03125l2.640625 0l0 14.0l-2.375 0l-0.125 -1.046875q-0.984375 1.234375 -2.53125 1.234375q-1.75 0 -2.8125 -1.375q-1.046875 -1.375 -1.046875 -3.8125zm2.640625 0.1875q0 1.390625 0.484375 2.125q0.484375 0.734375 1.40625 0.734375q1.21875 0 1.71875 -1.03125l0 -3.890625q-0.5 -1.015625 -1.703125 -1.015625q-1.90625 0 -1.90625 3.078125zm13.220703 -1.703125l0.765625 -6.75l7.421875 0l0 2.203125l-5.265625 0l-0.328125 2.84375q0.9375 -0.5 2.0 -0.5q1.890625 0 2.953125 1.171875q1.078125 1.171875 1.078125 3.296875q0 1.28125 -0.546875 2.296875q-0.53125 1.015625 -1.546875 1.578125q-1.0 0.5625 -2.375 0.5625q-1.203125 0 -2.234375 -0.484375q-1.03125 -0.5 -1.625 -1.375q-0.59375 -0.890625 -0.640625 -2.015625l2.609375 0q0.078125 0.828125 0.578125 1.296875q0.5 0.453125 1.296875 0.453125q0.890625 0 1.375 -0.640625q0.484375 -0.640625 0.484375 -1.828125q0 -1.125 -0.5625 -1.71875q-0.546875 -0.609375 -1.5625 -0.609375q-0.9375 0 -1.53125 0.5l-0.25 0.234375l-2.09375 -0.515625zm11.250549 7.65625l-1.96875 0l4.890625 -14.40625l1.953125 0l-4.875 14.40625zm12.421875 -1.140625l-2.625 0l0 -10.140625l-3.15625 0.96875l0 -2.140625l5.5 -1.96875l0.28125 0l0 13.28125zm5.2505493 1.140625l-1.96875 0l4.890625 -14.40625l1.953125 0l-4.875 14.40625zm15.125 -1.140625l-9.09375 0l0 -1.796875l4.28125 -4.578125q0.890625 -0.96875 1.3125 -1.6875q0.421875 -0.71875 0.421875 -1.359375q0 -0.890625 -0.453125 -1.390625q-0.4375 -0.515625 -1.265625 -0.515625q-0.890625 0 -1.40625 0.625q-0.515625 0.609375 -0.515625 1.609375l-2.640625 0q0 -1.203125 0.578125 -2.203125q0.578125 -1.015625 1.625 -1.578125q1.0625 -0.578125 2.40625 -0.578125q2.046875 0 3.171875 0.984375q1.140625 0.984375 1.140625 2.78125q0 0.984375 -0.515625 2.015625q-0.5 1.015625 -1.734375 2.375l-3.015625 3.171875l5.703125 0l0 2.125zm10.531799 -5.484375q0 2.75 -1.140625 4.21875q-1.140625 1.453125 -3.328125 1.453125q-2.171875 0 -3.328125 -1.421875q-1.140625 -1.4375 -1.171875 -4.109375l0 -2.4375q0 -2.78125 1.15625 -4.21875q1.15625 -1.453125 3.3125 -1.453125q2.171875 0 3.3125 1.4375q1.15625 1.421875 1.1875 4.09375l0 2.4375zm-2.625 -2.671875q0 -1.65625 -0.453125 -2.40625q-0.453125 -0.75 -1.40625 -0.75q-0.9375 0 -1.375 0.71875q-0.4375 0.703125 -0.46875 2.234375l0 3.21875q0 1.625 0.4375 2.421875q0.4375 0.78125 1.421875 0.78125q0.96875 0 1.390625 -0.75q0.421875 -0.765625 0.453125 -2.328125l0 -3.140625zm13.500488 8.15625l-9.09375 0l0 -1.796875l4.28125 -4.578125q0.890625 -0.96875 1.3125 -1.6875q0.421875 -0.71875 0.421875 -1.359375q0 -0.890625 -0.453125 -1.390625q-0.4375 -0.515625 -1.265625 -0.515625q-0.890625 0 -1.40625 0.625q-0.515625 0.609375 -0.515625 1.609375l-2.640625 0q0 -1.203125 0.578125 -2.203125q0.578125 -1.015625 1.625 -1.578125q1.0625 -0.578125 2.40625 -0.578125q2.046875 0 3.171875 0.984375q1.140625 0.984375 1.140625 2.78125q0 0.984375 -0.515625 2.015625q-0.5 1.015625 -1.734375 2.375l-3.015625 3.171875l5.703125 0l0 2.125zm8.000549 0l-2.625 0l0 -10.140625l-3.15625 0.96875l0 -2.140625l5.5 -1.96875l0.28125 0l0 13.28125zm5.0942993 3.328125l-1.375 -0.71875l0.328125 -0.59375q0.609375 -1.109375 0.640625 -2.21875l0 -2.03125l2.21875 0l-0.015625 1.8125q0 1.015625 -0.5 2.046875q-0.5 1.03125 -1.296875 1.703125zm12.263062 -16.59375l3.40625 9.625l3.390625 -9.625l3.59375 0l0 13.265625l-2.75 0l0 -3.625l0.28125 -6.265625l-3.578125 9.890625l-1.875 0l-3.578125 -9.875l0.28125 6.25l0 3.625l-2.734375 0l0 -13.265625l3.5625 0zm15.389343 13.265625l-2.65625 0l0 -9.859375l2.65625 0l0 9.859375zm-2.796875 -12.40625q0 -0.59375 0.390625 -0.96875q0.390625 -0.390625 1.078125 -0.390625q0.671875 0 1.0625 0.390625q0.40625 0.375 0.40625 0.96875q0 0.59375 -0.40625 0.984375q-0.390625 0.375 -1.0625 0.375q-0.671875 0 -1.078125 -0.375q-0.390625 -0.390625 -0.390625 -0.984375zm9.055847 10.46875q0.734375 0 1.1875 -0.390625q0.453125 -0.40625 0.46875 -1.078125l2.46875 0q0 1.0 -0.546875 1.84375q-0.53125 0.828125 -1.46875 1.296875q-0.9375 0.453125 -2.0625 0.453125q-2.109375 0 -3.34375 -1.34375q-1.21875 -1.34375 -1.21875 -3.71875l0 -0.171875q0 -2.28125 1.21875 -3.625q1.21875 -1.359375 3.328125 -1.359375q1.84375 0 2.953125 1.046875q1.125 1.046875 1.140625 2.796875l-2.46875 0q-0.015625 -0.765625 -0.46875 -1.234375q-0.453125 -0.484375 -1.203125 -0.484375q-0.921875 0 -1.390625 0.671875q-0.46875 0.671875 -0.46875 2.171875l0 0.265625q0 1.53125 0.453125 2.203125q0.46875 0.65625 1.421875 0.65625zm8.197693 -6.84375q1.046875 -1.25 2.640625 -1.25q3.203125 0 3.25 3.71875l0 6.3125l-2.640625 0l0 -6.234375q0 -0.859375 -0.359375 -1.25q-0.359375 -0.40625 -1.21875 -0.40625q-1.15625 0 -1.671875 0.890625l0 7.0l-2.625 0l0 -14.0l2.625 0l0 5.21875zm13.580078 8.78125q-0.171875 -0.359375 -0.265625 -0.890625q-0.953125 1.078125 -2.484375 1.078125q-1.453125 0 -2.40625 -0.84375q-0.9375 -0.84375 -0.9375 -2.109375q0 -1.578125 1.15625 -2.40625q1.15625 -0.84375 3.359375 -0.84375l1.203125 0l0 -0.578125q0 -0.671875 -0.359375 -1.078125q-0.34375 -0.421875 -1.09375 -0.421875q-0.65625 0 -1.046875 0.328125q-0.375 0.3125 -0.375 0.875l-2.625 0q0 -0.859375 0.515625 -1.578125q0.53125 -0.734375 1.5 -1.140625q0.96875 -0.421875 2.171875 -0.421875q1.8125 0 2.875 0.921875q1.078125 0.90625 1.078125 2.5625l0 4.265625q0.015625 1.40625 0.390625 2.125l0 0.15625l-2.65625 0zm-2.171875 -1.828125q0.578125 0 1.0625 -0.25q0.5 -0.265625 0.734375 -0.703125l0 -1.703125l-0.984375 0q-1.96875 0 -2.09375 1.375l-0.015625 0.15625q0 0.484375 0.34375 0.8125q0.34375 0.3125 0.953125 0.3125zm11.002258 2.015625q-2.171875 0 -3.53125 -1.328125q-1.359375 -1.34375 -1.359375 -3.546875l0 -0.265625q0 -1.484375 0.5625 -2.640625q0.578125 -1.171875 1.625 -1.796875q1.0625 -0.640625 2.40625 -0.640625q2.03125 0 3.1875 1.28125q1.15625 1.265625 1.15625 3.609375l0 1.0625l-6.265625 0q0.125 0.96875 0.765625 1.5625q0.640625 0.578125 1.625 0.578125q1.515625 0 2.375 -1.109375l1.296875 1.453125q-0.59375 0.84375 -1.609375 1.3125q-1.0 0.46875 -2.234375 0.46875zm-0.296875 -8.09375q-0.78125 0 -1.28125 0.53125q-0.484375 0.53125 -0.609375 1.515625l3.65625 0l0 -0.21875q-0.015625 -0.875 -0.484375 -1.34375q-0.453125 -0.484375 -1.28125 -0.484375zm8.6310425 7.90625l-2.65625 0l0 -14.0l2.65625 0l0 14.0zm17.779846 0l-2.734375 0l0 -5.6875l-5.328125 0l0 5.6875l-2.734375 0l0 -13.265625l2.734375 0l0 5.375l5.328125 0l0 -5.375l2.734375 0l0 13.265625zm7.9157715 0q-0.171875 -0.359375 -0.265625 -0.890625q-0.953125 1.078125 -2.484375 1.078125q-1.453125 0 -2.40625 -0.84375q-0.9375 -0.84375 -0.9375 -2.109375q0 -1.578125 1.15625 -2.40625q1.15625 -0.84375 3.359375 -0.84375l1.203125 0l0 -0.578125q0 -0.671875 -0.359375 -1.078125q-0.34375 -0.421875 -1.09375 -0.421875q-0.65625 0 -1.046875 0.328125q-0.375 0.3125 -0.375 0.875l-2.625 0q0 -0.859375 0.515625 -1.578125q0.53125 -0.734375 1.5 -1.140625q0.96875 -0.421875 2.171875 -0.421875q1.8125 0 2.875 0.921875q1.078125 0.90625 1.078125 2.5625l0 4.265625q0.015625 1.40625 0.390625 2.125l0 0.15625l-2.65625 0zm-2.171875 -1.828125q0.578125 0 1.0625 -0.25q0.5 -0.265625 0.734375 -0.703125l0 -1.703125l-0.984375 0q-1.96875 0 -2.09375 1.375l-0.015625 0.15625q0 0.484375 0.34375 0.8125q0.34375 0.3125 0.953125 0.3125zm10.006165 -1.890625l1.828125 -6.140625l2.828125 0l-3.96875 11.390625l-0.21875 0.515625q-0.890625 1.9375 -2.921875 1.9375q-0.5625 0 -1.15625 -0.171875l0 -2.0l0.390625 0.015625q0.75 0 1.109375 -0.234375q0.375 -0.234375 0.59375 -0.75l0.3125 -0.8125l-3.453125 -9.890625l2.828125 0l1.828125 6.140625zm10.105408 3.90625q-2.171875 0 -3.53125 -1.328125q-1.359375 -1.34375 -1.359375 -3.546875l0 -0.265625q0 -1.484375 0.5625 -2.640625q0.578125 -1.171875 1.625 -1.796875q1.0625 -0.640625 2.40625 -0.640625q2.03125 0 3.1875 1.28125q1.15625 1.265625 1.15625 3.609375l0 1.0625l-6.265625 0q0.125 0.96875 0.765625 1.5625q0.640625 0.578125 1.625 0.578125q1.515625 0 2.375 -1.109375l1.296875 1.453125q-0.59375 0.84375 -1.609375 1.3125q-1.0 0.46875 -2.234375 0.46875zm-0.296875 -8.09375q-0.78125 0 -1.28125 0.53125q-0.484375 0.53125 -0.609375 1.515625l3.65625 0l0 -0.21875q-0.015625 -0.875 -0.484375 -1.34375q-0.453125 -0.484375 -1.28125 -0.484375zm11.1779785 5.1875q0 -0.484375 -0.484375 -0.765625q-0.46875 -0.28125 -1.515625 -0.5q-3.53125 -0.734375 -3.53125 -2.984375q0 -1.3125 1.09375 -2.1875q1.09375 -0.875 2.84375 -0.875q1.875 0 3.0 0.890625q1.125 0.875 1.125 2.28125l-2.625 0q0 -0.5625 -0.375 -0.921875q-0.359375 -0.375 -1.125 -0.375q-0.671875 0 -1.03125 0.296875q-0.359375 0.296875 -0.359375 0.765625q0 0.4375 0.40625 0.703125q0.421875 0.265625 1.40625 0.46875q0.984375 0.1875 1.65625 0.4375q2.078125 0.765625 2.078125 2.65625q0 1.34375 -1.15625 2.1875q-1.15625 0.828125 -2.984375 0.828125q-1.234375 0 -2.203125 -0.4375q-0.953125 -0.453125 -1.5 -1.21875q-0.546875 -0.765625 -0.546875 -1.671875l2.484375 0q0.046875 0.703125 0.53125 1.078125q0.484375 0.375 1.28125 0.375q0.765625 0 1.140625 -0.28125q0.390625 -0.296875 0.390625 -0.75z" fill-rule="nonzero"/><path fill="#000000" fill-opacity="0.0" d="m23.503937 17.32021l316.6929 0l0 42.015747l-316.6929 0z" fill-rule="evenodd"/><path fill="#000000" d="m44.58206 37.912083q0 1.953125 -0.703125 3.4375q-0.6875 1.46875 -1.984375 2.28125q-1.28125 0.796875 -2.9375 0.796875q-1.65625 0 -2.953125 -0.796875q-1.28125 -0.796875 -2.0 -2.265625q-0.703125 -1.46875 -0.71875 -3.390625l0 -0.65625q0 -1.953125 0.703125 -3.4375q0.71875 -1.484375 2.0 -2.28125q1.28125 -0.8125 2.9375 -0.8125q1.671875 0 2.953125 0.8125q1.296875 0.796875 2.0 2.28125q0.703125 1.484375 0.703125 3.4375l0 0.59375zm-2.765625 -0.609375q0 -2.078125 -0.75 -3.15625q-0.75 -1.09375 -2.125 -1.09375q-1.375 0 -2.125 1.078125q-0.75 1.0625 -0.765625 3.125l0 0.65625q0 2.03125 0.75 3.15625q0.75 1.109375 2.15625 1.109375q1.375 0 2.109375 -1.078125q0.734375 -1.078125 0.75 -3.140625l0 -0.65625zm10.115204 -0.453125q-0.53125 -0.0625 -0.9375 -0.0625q-1.5 0 -1.96875 1.0l0 6.453125l-2.625 0l0 -9.859375l2.484375 0l0.078125 1.171875q0.78125 -1.34375 2.1875 -1.34375q0.4375 0 0.828125 0.109375l-0.046875 2.53125zm4.0547943 7.390625l-2.65625 0l0 -9.859375l2.65625 0l0 9.859375zm-2.796875 -12.40625q0 -0.59375 0.390625 -0.96875q0.390625 -0.390625 1.078125 -0.390625q0.671875 0 1.0625 0.390625q0.40625 0.375 0.40625 0.96875q0 0.59375 -0.40625 0.984375q-0.390625 0.375 -1.0625 0.375q-0.671875 0 -1.078125 -0.375q-0.390625 -0.390625 -0.390625 -0.984375zm4.571457 7.40625q0 -2.265625 1.078125 -3.640625q1.078125 -1.390625 2.921875 -1.390625q1.609375 0 2.515625 1.109375l0.109375 -0.9375l2.390625 0l0 9.53125q0 1.296875 -0.59375 2.25q-0.578125 0.953125 -1.65625 1.453125q-1.0625 0.5 -2.484375 0.5q-1.09375 0 -2.125 -0.4375q-1.015625 -0.421875 -1.546875 -1.109375l1.15625 -1.59375q0.984375 1.09375 2.390625 1.09375q1.046875 0 1.625 -0.5625q0.59375 -0.5625 0.59375 -1.578125l0 -0.53125q-0.921875 1.03125 -2.40625 1.03125q-1.765625 0 -2.875 -1.390625q-1.09375 -1.390625 -1.09375 -3.6875l0 -0.109375zm2.640625 0.1875q0 1.34375 0.53125 2.109375q0.546875 0.75 1.484375 0.75q1.203125 0 1.71875 -0.890625l0 -4.15625q-0.53125 -0.890625 -1.703125 -0.890625q-0.953125 0 -1.5 0.78125q-0.53125 0.765625 -0.53125 2.296875zm11.180252 4.8125l-2.65625 0l0 -9.859375l2.65625 0l0 9.859375zm-2.796875 -12.40625q0 -0.59375 0.390625 -0.96875q0.390625 -0.390625 1.078125 -0.390625q0.671875 0 1.0625 0.390625q0.40625 0.375 0.40625 0.96875q0 0.59375 -0.40625 0.984375q-0.390625 0.375 -1.0625 0.375q-0.671875 0 -1.078125 -0.375q-0.390625 -0.390625 -0.390625 -0.984375zm7.383957 2.546875l0.078125 1.140625q1.0625 -1.3125 2.828125 -1.3125q1.578125 0 2.34375 0.921875q0.765625 0.90625 0.78125 2.734375l0 6.375l-2.640625 0l0 -6.296875q0 -0.84375 -0.359375 -1.21875q-0.359375 -0.375 -1.21875 -0.375q-1.109375 0 -1.65625 0.9375l0 6.953125l-2.640625 0l0 -9.859375l2.484375 0zm13.729843 9.859375q-0.171875 -0.359375 -0.265625 -0.890625q-0.953125 1.078125 -2.484375 1.078125q-1.453125 0 -2.40625 -0.84375q-0.9375 -0.84375 -0.9375 -2.109375q0 -1.578125 1.15625 -2.40625q1.15625 -0.84375 3.359375 -0.84375l1.203125 0l0 -0.578125q0 -0.671875 -0.359375 -1.078125q-0.34375 -0.421875 -1.09375 -0.421875q-0.65625 0 -1.046875 0.328125q-0.375 0.3125 -0.375 0.875l-2.625 0q0 -0.859375 0.515625 -1.578125q0.53125 -0.734375 1.5 -1.140625q0.96875 -0.421875 2.171875 -0.421875q1.8125 0 2.875 0.921875q1.078125 0.90625 1.078125 2.5625l0 4.265625q0.015625 1.40625 0.390625 2.125l0 0.15625l-2.65625 0zm-2.171875 -1.828125q0.578125 0 1.0625 -0.25q0.5 -0.265625 0.734375 -0.703125l0 -1.703125l-0.984375 0q-1.96875 0 -2.09375 1.375l-0.015625 0.15625q0 0.484375 0.34375 0.8125q0.34375 0.3125 0.953125 0.3125zm9.252228 1.828125l-2.65625 0l0 -14.0l2.65625 0l0 14.0z" fill-rule="nonzero"/><path fill="#000000" fill-opacity="0.0" d="m13.3517065 346.2467l316.6929 0l0 42.015778l-316.6929 0z" fill-rule="evenodd"/><path fill="#000000" d="m31.02358 370.43234l-4.796875 0l-0.90625 2.734375l-2.90625 0l4.9375 -13.265625l2.53125 0l4.968752 13.265625l-2.906252 0l-0.921875 -2.734375zm-4.046875 -2.21875l3.3125 0l-1.671875 -4.953125l-1.640625 4.953125zm9.662264 4.953125l0 -7.921875l-1.46875 0l0 -1.9375l1.46875 0l0 -0.828125q0 -1.671875 0.953125 -2.578125q0.953125 -0.921875 2.65625 -0.921875q0.546875 0 1.34375 0.1875l-0.03125 2.046875q-0.328125 -0.09375 -0.796875 -0.09375q-1.484375 0 -1.484375 1.390625l0 0.796875l1.953125 0l0 1.9375l-1.953125 0l0 7.921875l-2.640625 0zm9.108246 -12.28125l0 2.421875l1.6875 0l0 1.9375l-1.6875 0l0 4.921875q0 0.546875 0.203125 0.78125q0.21875 0.234375 0.8125 0.234375q0.4375 0 0.78125 -0.0625l0 2.0q-0.78125 0.234375 -1.59375 0.234375q-2.78125 0 -2.828125 -2.796875l0 -5.3125l-1.4375 0l0 -1.9375l1.4375 0l0 -2.421875l2.625 0zm7.694397 12.46875q-2.171875 0 -3.53125 -1.328125q-1.359375 -1.34375 -1.359375 -3.546875l0 -0.265625q0 -1.484375 0.5625 -2.640625q0.578125 -1.171875 1.625 -1.796875q1.0625 -0.640625 2.40625 -0.640625q2.03125 0 3.1875 1.28125q1.15625 1.265625 1.15625 3.609375l0 1.0625l-6.265625 0q0.125 0.96875 0.765625 1.5625q0.640625 0.578125 1.625 0.578125q1.515625 0 2.375 -1.109375l1.296875 1.453125q-0.59375 0.84375 -1.609375 1.3125q-1.0 0.46875 -2.234375 0.46875zm-0.296875 -8.09375q-0.78125 0 -1.28125 0.53125q-0.484375 0.53125 -0.609375 1.515625l3.65625 0l0 -0.21875q-0.015625 -0.875 -0.484375 -1.34375q-0.453125 -0.484375 -1.28125 -0.484375zm11.381088 0.515625q-0.53125 -0.0625 -0.9375 -0.0625q-1.5 0 -1.96875 1.0l0 6.453125l-2.625 0l0 -9.859375l2.484375 0l0.078125 1.171875q0.78125 -1.34375 2.1875 -1.34375q0.4375 0 0.828125 0.109375l-0.046875 2.53125zm6.091263 7.390625l0 -13.265625l4.078125 0q1.75 0 3.125 0.796875q1.390625 0.78125 2.15625 2.234375q0.78125 1.453125 0.78125 3.296875l0 0.609375q0 1.859375 -0.765625 3.296875q-0.765625 1.4375 -2.15625 2.234375q-1.375 0.78125 -3.109375 0.796875l-4.109375 0zm2.734375 -11.046875l0 8.84375l1.3125 0q1.609375 0 2.453125 -1.046875q0.84375 -1.046875 0.859375 -2.984375l0 -0.703125q0 -2.03125 -0.84375 -3.0625q-0.828125 -1.046875 -2.4375 -1.046875l-1.34375 0zm13.749741 11.234375q-2.171875 0 -3.53125 -1.328125q-1.359375 -1.34375 -1.359375 -3.546875l0 -0.265625q0 -1.484375 0.5625 -2.640625q0.578125 -1.171875 1.625 -1.796875q1.0625 -0.640625 2.40625 -0.640625q2.03125 0 3.1875 1.28125q1.15625 1.265625 1.15625 3.609375l0 1.0625l-6.265625 0q0.125 0.96875 0.765625 1.5625q0.640625 0.578125 1.625 0.578125q1.515625 0 2.375 -1.109375l1.296875 1.453125q-0.59375 0.84375 -1.609375 1.3125q-1.0 0.46875 -2.234375 0.46875zm-0.296875 -8.09375q-0.78125 0 -1.28125 0.53125q-0.484375 0.53125 -0.609375 1.515625l3.65625 0l0 -0.21875q-0.015625 -0.875 -0.484375 -1.34375q-0.453125 -0.484375 -1.28125 -0.484375zm8.631088 7.90625l-2.65625 0l0 -14.0l2.65625 0l0 14.0zm6.696457 0.1875q-2.171875 0 -3.53125 -1.328125q-1.359375 -1.34375 -1.359375 -3.546875l0 -0.265625q0 -1.484375 0.5625 -2.640625q0.578125 -1.171875 1.625 -1.796875q1.0625 -0.640625 2.40625 -0.640625q2.03125 0 3.1875 1.28125q1.15625 1.265625 1.15625 3.609375l0 1.0625l-6.265625 0q0.125 0.96875 0.765625 1.5625q0.640625 0.578125 1.625 0.578125q1.515625 0 2.375 -1.109375l1.296875 1.453125q-0.59375 0.84375 -1.609375 1.3125q-1.0 0.46875 -2.234375 0.46875zm-0.296875 -8.09375q-0.78125 0 -1.28125 0.53125q-0.484375 0.53125 -0.609375 1.515625l3.65625 0l0 -0.21875q-0.015625 -0.875 -0.484375 -1.34375q-0.453125 -0.484375 -1.28125 -0.484375zm8.990463 -4.375l0 2.421875l1.6875 0l0 1.9375l-1.6875 0l0 4.921875q0 0.546875 0.203125 0.78125q0.21875 0.234375 0.8125 0.234375q0.4375 0 0.78125 -0.0625l0 2.0q-0.78125 0.234375 -1.59375 0.234375q-2.78125 0 -2.828125 -2.796875l0 -5.3125l-1.4375 0l0 -1.9375l1.4375 0l0 -2.421875l2.625 0zm5.944397 12.28125l-2.65625 0l0 -9.859375l2.65625 0l0 9.859375zm-2.796875 -12.40625q0 -0.59375 0.390625 -0.96875q0.390625 -0.390625 1.078125 -0.390625q0.671875 0 1.0625 0.390625q0.40625 0.375 0.40625 0.96875q0 0.59375 -0.40625 0.984375q-0.390625 0.375 -1.0625 0.375q-0.671875 0 -1.078125 -0.375q-0.390625 -0.390625 -0.390625 -0.984375zm4.540207 7.390625q0 -1.46875 0.5625 -2.609375q0.578125 -1.15625 1.640625 -1.78125q1.0625 -0.625 2.453125 -0.625q2.0 0 3.265625 1.21875q1.265625 1.21875 1.40625 3.3125l0.015625 0.671875q0 2.265625 -1.265625 3.640625q-1.265625 1.375 -3.40625 1.375q-2.125 0 -3.40625 -1.359375q-1.265625 -1.375 -1.265625 -3.734375l0 -0.109375zm2.640625 0.1875q0 1.40625 0.53125 2.15625q0.53125 0.734375 1.515625 0.734375q0.953125 0 1.484375 -0.734375q0.546875 -0.734375 0.546875 -2.34375q0 -1.375 -0.546875 -2.125q-0.53125 -0.765625 -1.515625 -0.765625q-0.953125 0 -1.484375 0.75q-0.53125 0.75 -0.53125 2.328125zm10.751915 -5.03125l0.078125 1.140625q1.0625 -1.3125 2.828125 -1.3125q1.578125 0 2.34375 0.921875q0.765625 0.90625 0.78125 2.734375l0 6.375l-2.640625 0l0 -6.296875q0 -0.84375 -0.359375 -1.21875q-0.359375 -0.375 -1.21875 -0.375q-1.109375 0 -1.65625 0.9375l0 6.953125l-2.640625 0l0 -9.859375l2.484375 0z" fill-rule="nonzero"/></g></svg>