<svg version="1.1" viewBox="0.0 0.0 946.01312335958 447.23884514435696" fill="none" stroke="none" stroke-linecap="square" stroke-miterlimit="10" xmlns:xlink="http://www.w3.org/1999/xlink" xmlns="http://www.w3.org/2000/svg"><clipPath id="p.0"><path d="m0 0l946.0131 0l0 447.23883l-946.0131 0l0 -447.23883z" clip-rule="nonzero"/></clipPath><g clip-path="url(#p.0)"><path fill="#000000" fill-opacity="0.0" d="m0 0l946.0131 0l0 447.23883l-946.0131 0z" fill-rule="evenodd"/><path fill="#2f2f2f" d="m395.48618 125.84252l0 0c0 -12.828667 10.399689 -23.228348 23.228363 -23.228348l115.02362 0c6.1605225 0 12.068726 2.4472656 16.424927 6.803421c4.35614 4.356163 6.803406 10.264381 6.803406 16.424927l0 0l0 0c0 12.828667 -10.399658 23.22834 -23.228333 23.22834l-115.02362 0c-12.828674 0 -23.228363 -10.399673 -23.228363 -23.22834z" fill-rule="evenodd"/><path fill="#ffffff" d="m432.17166 128.10501l0 2.9375l5.09375 0l0 -1.09375q0 -0.71875 0.28125 -1.015625q0.28125 -0.3125 0.734375 -0.3125q0.4375 0 0.71875 0.3125q0.28125 0.296875 0.28125 1.015625l0 3.09375l-9.4375 0q-0.71875 0 -1.03125 -0.28125q-0.296875 -0.28125 -0.296875 -0.71875q0 -0.453125 0.3125 -0.71875q0.3125 -0.28125 1.015625 -0.28125l0.3125 0l0 -7.8281174l-0.3125 0q-0.71875 0 -1.03125 -0.28125q-0.296875 -0.28125 -0.296875 -0.734375q0 -0.453125 0.296875 -0.71875q0.3125 -0.28125 1.03125 -0.28125l8.984375 0l0 3.046875q0 0.71875 -0.28125 1.03125q-0.265625 0.296875 -0.703125 0.296875q-0.453125 0 -0.734375 -0.296875q-0.28125 -0.296875 -0.28125 -1.03125l0 -1.03125l-4.65625 0l0 2.890625l1.75 0q0 -0.78125 0.140625 -1.015625q0.3125 -0.46875 0.859375 -0.46875q0.453125 0 0.71875 0.3125q0.28125 0.296875 0.28125 1.015625l0 2.3124924q0 0.65625 -0.15625 0.875q-0.3125 0.453125 -0.84375 0.453125q-0.546875 0 -0.859375 -0.46875q-0.140625 -0.234375 -0.140625 -1.015625l-1.75 0zm10.955078 -3.9374924l0 0.578125q0.5 -0.484375 0.890625 -0.65625q0.390625 -0.1875 0.90625 -0.1875q0.4375 0 0.859375 0.21875q0.4375 0.203125 0.859375 0.640625q0.515625 -0.4375 1.046875 -0.640625q0.53125 -0.203125 1.09375 -0.203125q1.109375 0 1.796875 0.59375q0.921875 0.78125 0.921875 2.046875l0 4.4843674q0.625 0 0.921875 0.28125q0.3125 0.28125 0.3125 0.71875q0 0.4375 -0.3125 0.71875q-0.296875 0.28125 -1.015625 0.28125l-1.90625 0l0 -6.3124924q0 -0.46875 -0.171875 -0.640625q-0.15625 -0.171875 -0.5 -0.171875q-0.34375 0 -0.625 0.171875q-0.359375 0.25 -0.875 0.921875l0 4.0312424q0.625 0 0.921875 0.28125q0.3125 0.28125 0.3125 0.71875q0 0.4375 -0.3125 0.71875q-0.296875 0.28125 -1.015625 0.28125l-1.90625 0l0 -6.3124924q0 -0.453125 -0.171875 -0.625q-0.171875 -0.1875 -0.515625 -0.1875q-0.34375 0 -0.6875 0.21875q-0.34375 0.21875 -0.828125 0.875l0 4.0312424q0.625 0 0.9375 0.28125q0.3125 0.28125 0.3125 0.71875q0 0.4375 -0.3125 0.71875q-0.3125 0.28125 -1.03125 0.28125l-1.8125 0q-0.71875 0 -1.015625 -0.28125q-0.3125 -0.28125 -0.3125 -0.71875q0 -0.453125 0.3125 -0.71875q0.296875 -0.28125 0.921875 -0.28125l0 -4.8593674q-0.625 0 -0.921875 -0.28125q-0.3125 -0.296875 -0.3125 -0.734375q0 -0.4375 0.3125 -0.71875q0.296875 -0.28125 1.015625 -0.28125l1.90625 0zm12.611328 7.7656174l0 3.28125l1.203125 0q0.71875 0 1.03125 0.28125q0.3125 0.28125 0.3125 0.734375q0 0.4375 -0.3125 0.71875q-0.3125 0.28125 -1.03125 0.28125l-3.546875 0q-0.71875 0 -1.03125 -0.28125q-0.3125 -0.28125 -0.3125 -0.71875q0 -0.453125 0.3125 -0.734375q0.3125 -0.28125 1.03125 -0.28125l0.34375 0l0 -9.031242l-0.34375 0q-0.71875 0 -1.03125 -0.28125q-0.3125 -0.28125 -0.3125 -0.734375q0 -0.4375 0.3125 -0.71875q0.3125 -0.28125 1.03125 -0.28125l2.34375 0l0 0.6875q0.703125 -0.46875 1.453125 -0.703125q0.75 -0.234375 1.546875 -0.234375q2.046875 0 3.484375 1.390625q1.453125 1.390625 1.453125 3.1874924q0 1.984375 -1.703125 3.265625q-1.421875 1.078125 -3.21875 1.078125q-0.765625 0 -1.515625 -0.21875q-0.75 -0.234375 -1.5 -0.6875zm5.9375 -3.4375q0 -0.421875 -0.328125 -1.0624924q-0.328125 -0.65625 -1.03125 -1.078125q-0.6875 -0.4375 -1.609375 -0.4375q-1.5 0 -2.375 1.125q-0.59375 0.765625 -0.59375 1.4843674q0 0.796875 0.84375 1.5625q0.859375 0.75 2.125 0.75q1.265625 0 2.109375 -0.75q0.859375 -0.765625 0.859375 -1.59375zm9.548828 -8.124992l0 10.671867l2.40625 0q0.71875 0 1.03125 0.28125q0.3125 0.265625 0.3125 0.71875q0 0.4375 -0.3125 0.71875q-0.3125 0.28125 -1.03125 0.28125l-6.8125 0q-0.71875 0 -1.03125 -0.28125q-0.296875 -0.28125 -0.296875 -0.71875q0 -0.453125 0.296875 -0.71875q0.3125 -0.28125 1.03125 -0.28125l2.40625 0l0 -8.671867l-1.609375 0q-0.71875 0 -1.03125 -0.265625q-0.3125 -0.28125 -0.3125 -0.734375q0 -0.4375 0.3125 -0.71875q0.3125 -0.28125 1.03125 -0.28125l3.609375 0zm16.205078 8.406242q0 1.15625 -0.640625 2.234375q-0.640625 1.078125 -1.90625 1.71875q-1.265625 0.640625 -2.640625 0.640625q-1.359375 0 -2.609375 -0.625q-1.25 -0.640625 -1.90625 -1.71875q-0.65625 -1.09375 -0.65625 -2.265625q0 -1.2031174 0.65625 -2.3593674q0.671875 -1.15625 1.90625 -1.8125q1.25 -0.671875 2.609375 -0.671875q1.375 0 2.625 0.671875q1.265625 0.671875 1.90625 1.828125q0.65625 1.140625 0.65625 2.3593674zm-2.0 0q0 -0.9531174 -0.703125 -1.7656174q-0.9375 -1.09375 -2.484375 -1.09375q-1.359375 0 -2.265625 0.875q-0.90625 0.859375 -0.90625 1.9999924q0 0.9375 0.90625 1.75q0.921875 0.8125 2.265625 0.8125q1.34375 0 2.265625 -0.8125q0.921875 -0.8125 0.921875 -1.765625zm7.689453 4.203125l-3.46875 -6.7968674q-0.5 -0.0625 -0.75 -0.328125q-0.25 -0.28125 -0.25 -0.671875q0 -0.453125 0.296875 -0.734375q0.3125 -0.28125 1.046875 -0.28125l1.8125 0q0.734375 0 1.03125 0.28125q0.3125 0.28125 0.3125 0.734375q0 0.4375 -0.3125 0.71875q-0.296875 0.28125 -0.96875 0.28125l2.359375 4.5937424l2.34375 -4.5937424q-0.640625 0 -0.953125 -0.28125q-0.296875 -0.28125 -0.296875 -0.734375q0 -0.4375 0.296875 -0.71875q0.3125 -0.28125 1.03125 -0.28125l1.890625 0q0.71875 0 1.015625 0.28125q0.3125 0.28125 0.3125 0.734375q0 0.390625 -0.265625 0.671875q-0.265625 0.28125 -0.78125 0.328125l-4.59375 9.031242q0.765625 0 1.0 0.15625q0.46875 0.296875 0.46875 0.859375q0 0.4375 -0.3125 0.71875q-0.3125 0.28125 -1.03125 0.28125l-4.359375 0q-0.734375 0 -1.046875 -0.28125q-0.296875 -0.28125 -0.296875 -0.71875q0 -0.453125 0.296875 -0.734375q0.3125 -0.28125 1.046875 -0.28125l1.984375 0l1.140625 -2.234375zm18.142578 -3.359375l-8.21875 0q0.3125 0.78125 1.109375 1.265625q0.796875 0.46875 2.15625 0.46875q1.109375 0 2.953125 -0.46875q0.765625 -0.203125 1.0625 -0.203125q0.390625 0 0.65625 0.296875q0.28125 0.28125 0.28125 0.703125q0 0.390625 -0.28125 0.671875q-0.390625 0.359375 -1.90625 0.6875q-1.515625 0.328125 -2.921875 0.328125q-2.390625 0 -3.84375 -1.359375q-1.4375 -1.359375 -1.4375 -3.34375q0 -2.1093674 1.5625 -3.4218674q1.5625 -1.328125 3.59375 -1.328125q1.21875 0 2.234375 0.4375q1.015625 0.421875 1.515625 0.90625q0.703125 0.734375 1.171875 1.796875q0.3125 0.734375 0.3125 1.7187424l0 0.84375zm-2.21875 -1.9999924q-0.46875 -0.859375 -1.21875 -1.28125q-0.734375 -0.421875 -1.75 -0.421875q-1.015625 0 -1.765625 0.421875q-0.734375 0.421875 -1.203125 1.28125l5.9375 0zm14.220673 1.9999924l-8.21875 0q0.3125 0.78125 1.109375 1.265625q0.796875 0.46875 2.15625 0.46875q1.109375 0 2.953125 -0.46875q0.765625 -0.203125 1.0625 -0.203125q0.390625 0 0.65625 0.296875q0.28125 0.28125 0.28125 0.703125q0 0.390625 -0.28125 0.671875q-0.390625 0.359375 -1.90625 0.6875q-1.515625 0.328125 -2.921875 0.328125q-2.390625 0 -3.84375 -1.359375q-1.4375 -1.359375 -1.4375 -3.34375q0 -2.1093674 1.5625 -3.4218674q1.5625 -1.328125 3.59375 -1.328125q1.21875 0 2.234375 0.4375q1.015625 0.421875 1.515625 0.90625q0.703125 0.734375 1.171875 1.796875q0.3125 0.734375 0.3125 1.7187424l0 0.84375zm-2.21875 -1.9999924q-0.46875 -0.859375 -1.21875 -1.28125q-0.734375 -0.421875 -1.75 -0.421875q-1.015625 0 -1.765625 0.421875q-0.734375 0.421875 -1.203125 1.28125l5.9375 0z" fill-rule="nonzero"/><path fill="#414141" d="m581.3441 220.29936l0 0c0 -12.828674 10.399658 -23.228348 23.228333 -23.228348l115.02362 0c6.1605225 0 12.068787 2.4472656 16.424927 6.803421c4.35614 4.3561554 6.803406 10.264374 6.803406 16.424927l0 0l0 0c0 12.828659 -10.399658 23.228348 -23.228333 23.228348l-115.02362 0c-12.828674 0 -23.228333 -10.399689 -23.228333 -23.228348z" fill-rule="evenodd"/><path fill="#ffffff" d="m606.4397 223.58124l-3.890625 0l-0.390625 0.96875l0.390625 0q0.578125 0 0.8125 0.234375q0.25 0.21875 0.25 0.578125q0 0.34375 -0.25 0.578125q-0.234375 0.21875 -0.8125 0.21875l-2.15625 0q-0.578125 0 -0.828125 -0.21875q-0.25 -0.234375 -0.25 -0.59375q0 -0.359375 0.265625 -0.578125q0.25 -0.234375 0.84375 -0.21875l2.515625 -6.265625l-1.046875 0q-0.578125 0 -0.828125 -0.21875q-0.234375 -0.21875 -0.234375 -0.578125q0 -0.359375 0.234375 -0.578125q0.25 -0.234375 0.828125 -0.234375l3.46875 0.015625l3.1875 7.859375q0.5625 0 0.734375 0.125q0.359375 0.265625 0.359375 0.6875q0 0.34375 -0.25 0.578125q-0.234375 0.21875 -0.8125 0.21875l-2.15625 0q-0.578125 0 -0.828125 -0.21875q-0.234375 -0.234375 -0.234375 -0.59375q0 -0.34375 0.234375 -0.5625q0.25 -0.234375 0.828125 -0.234375l0.390625 0l-0.375 -0.96875zm-0.671875 -1.609375l-1.28125 -3.171875l-1.296875 3.171875l2.578125 0zm11.9921875 -5.953125l0 8.53125l0.265625 0q0.578125 0 0.828125 0.234375q0.25 0.21875 0.25 0.578125q0 0.34375 -0.25 0.578125q-0.25 0.21875 -0.828125 0.21875l-1.875 0l0 -0.390625q-0.546875 0.3125 -1.140625 0.484375q-0.59375 0.171875 -1.234375 0.171875q-1.8125 0 -2.921875 -1.046875q-1.09375 -1.046875 -1.09375 -2.609375q0 -1.625 1.15625 -2.765625q1.15625 -1.15625 2.828125 -1.15625q0.625 0 1.21875 0.203125q0.609375 0.1875 1.1875 0.5625l0 -1.984375l-0.265625 0q-0.578125 0 -0.828125 -0.21875q-0.25 -0.234375 -0.25 -0.578125q0 -0.359375 0.25 -0.578125q0.25 -0.234375 0.828125 -0.234375l1.875 0zm-1.609375 6.796875q0 -0.984375 -0.703125 -1.671875q-0.6875 -0.6875 -1.6875 -0.6875q-1.0 0 -1.703125 0.6875q-0.6875 0.6875 -0.6875 1.65625q0 0.875 0.625 1.453125q0.625 0.5625 1.765625 0.5625q1.125 0 1.75 -0.5625q0.640625 -0.578125 0.640625 -1.4375zm5.0546875 -3.75l0 0.453125q0.390625 -0.390625 0.703125 -0.53125q0.328125 -0.140625 0.734375 -0.140625q0.359375 0 0.703125 0.171875q0.34375 0.171875 0.671875 0.515625q0.40625 -0.34375 0.828125 -0.515625q0.4375 -0.171875 0.875 -0.171875q0.890625 0 1.453125 0.484375q0.734375 0.625 0.734375 1.640625l0 3.578125q0.5 0 0.734375 0.234375q0.25 0.21875 0.25 0.578125q0 0.34375 -0.25 0.578125q-0.234375 0.21875 -0.8125 0.21875l-1.53125 0l0 -5.0625q0 -0.359375 -0.140625 -0.5q-0.125 -0.140625 -0.390625 -0.140625q-0.265625 0 -0.5 0.140625q-0.28125 0.1875 -0.703125 0.734375l0 3.21875q0.5 0 0.734375 0.234375q0.25 0.21875 0.25 0.578125q0 0.34375 -0.25 0.578125q-0.234375 0.21875 -0.8125 0.21875l-1.515625 0l0 -5.0625q0 -0.359375 -0.140625 -0.5q-0.140625 -0.140625 -0.40625 -0.140625q-0.28125 0 -0.5625 0.171875q-0.265625 0.171875 -0.65625 0.703125l0 3.21875q0.5 0 0.75 0.234375q0.25 0.21875 0.25 0.578125q0 0.34375 -0.25 0.578125q-0.25 0.21875 -0.828125 0.21875l-1.4375 0q-0.578125 0 -0.828125 -0.21875q-0.25 -0.234375 -0.25 -0.59375q0 -0.34375 0.25 -0.5625q0.234375 -0.234375 0.75 -0.234375l0 -3.890625q-0.515625 0 -0.75 -0.21875q-0.25 -0.234375 -0.25 -0.578125q0 -0.359375 0.25 -0.578125q0.25 -0.21875 0.828125 -0.21875l1.515625 0zm12.6484375 -3.046875l0 1.703125l-1.90625 0l0 -1.703125l1.90625 0zm0.21875 3.046875l0 5.484375l1.921875 0q0.578125 0 0.828125 0.234375q0.25 0.21875 0.25 0.578125q0 0.34375 -0.25 0.578125q-0.25 0.21875 -0.828125 0.21875l-5.4375 0q-0.578125 0 -0.828125 -0.21875q-0.25 -0.234375 -0.25 -0.59375q0 -0.34375 0.25 -0.5625q0.25 -0.234375 0.828125 -0.234375l1.921875 0l0 -3.890625l-1.296875 0q-0.5625 0 -0.8125 -0.21875q-0.25 -0.21875 -0.25 -0.578125q0 -0.359375 0.234375 -0.578125q0.25 -0.21875 0.828125 -0.21875l2.890625 0zm7.1953125 0l0 0.53125q0.4375 -0.375 0.953125 -0.5625q0.53125 -0.1875 1.15625 -0.1875q1.421875 0 2.25 0.890625q0.65625 0.703125 0.65625 1.84375l0 2.96875q0.5 0 0.734375 0.234375q0.25 0.21875 0.25 0.578125q0 0.34375 -0.25 0.578125q-0.234375 0.21875 -0.8125 0.21875l-1.453125 0q-0.578125 0 -0.828125 -0.21875q-0.234375 -0.234375 -0.234375 -0.59375q0 -0.34375 0.234375 -0.5625q0.25 -0.234375 0.75 -0.234375l0 -3.015625q0 -0.53125 -0.28125 -0.765625q-0.359375 -0.3125 -1.09375 -0.3125q-0.5625 0 -0.984375 0.21875q-0.40625 0.203125 -1.046875 0.90625l0 2.96875q0.609375 0 0.796875 0.125q0.375 0.234375 0.375 0.6875q0 0.34375 -0.25 0.578125q-0.234375 0.21875 -0.8125 0.21875l-1.828125 0q-0.578125 0 -0.828125 -0.21875q-0.234375 -0.234375 -0.234375 -0.59375q0 -0.4375 0.375 -0.671875q0.1875 -0.125 0.796875 -0.125l0 -3.890625q-0.5 0 -0.75 -0.21875q-0.234375 -0.234375 -0.234375 -0.578125q0 -0.359375 0.234375 -0.578125q0.25 -0.21875 0.828125 -0.21875l1.53125 0zm11.7890625 -3.046875l0 1.703125l-1.90625 0l0 -1.703125l1.90625 0zm0.21875 3.046875l0 5.484375l1.921875 0q0.578125 0 0.828125 0.234375q0.25 0.21875 0.25 0.578125q0 0.34375 -0.25 0.578125q-0.25 0.21875 -0.828125 0.21875l-5.4375 0q-0.578125 0 -0.828125 -0.21875q-0.25 -0.234375 -0.25 -0.59375q0 -0.34375 0.25 -0.5625q0.25 -0.234375 0.828125 -0.234375l1.921875 0l0 -3.890625l-1.296875 0q-0.5625 0 -0.8125 -0.21875q-0.25 -0.21875 -0.25 -0.578125q0 -0.359375 0.234375 -0.578125q0.25 -0.21875 0.828125 -0.21875l2.890625 0zm10.5390625 1.875q-0.390625 -0.25 -0.828125 -0.359375q-0.421875 -0.125 -0.890625 -0.125q-0.921875 0 -1.46875 0.296875q-0.25 0.140625 -0.25 0.296875q0 0.171875 0.328125 0.34375q0.25 0.125 1.125 0.25q1.59375 0.21875 2.21875 0.4375q0.8125 0.28125 1.25 0.859375q0.453125 0.5625 0.453125 1.203125q0 0.859375 -0.75 1.4375q-1.09375 0.84375 -2.828125 0.84375q-0.6875 0 -1.28125 -0.125q-0.59375 -0.125 -1.078125 -0.359375q-0.125 0.09375 -0.265625 0.15625q-0.125 0.046875 -0.265625 0.046875q-0.375 0 -0.59375 -0.234375q-0.21875 -0.25 -0.21875 -0.828125l0 -0.546875q0 -0.578125 0.21875 -0.8125q0.21875 -0.25 0.578125 -0.25q0.296875 0 0.484375 0.15625q0.203125 0.15625 0.3125 0.546875q0.359375 0.3125 0.875 0.484375q0.515625 0.15625 1.1875 0.15625q1.109375 0 1.71875 -0.34375q0.28125 -0.171875 0.28125 -0.359375q0 -0.3125 -0.40625 -0.515625q-0.421875 -0.203125 -1.71875 -0.34375q-1.921875 -0.203125 -2.578125 -0.78125q-0.640625 -0.578125 -0.640625 -1.40625q0 -0.859375 0.71875 -1.4375q0.984375 -0.78125 2.578125 -0.78125q0.5625 0 1.0625 0.109375q0.515625 0.109375 0.984375 0.328125q0.15625 -0.109375 0.28125 -0.15625q0.125 -0.0625 0.234375 -0.0625q0.328125 0 0.546875 0.25q0.21875 0.234375 0.21875 0.8125l0 0.390625q0 0.53125 -0.125 0.71875q-0.25 0.359375 -0.671875 0.359375q-0.296875 0 -0.515625 -0.171875q-0.21875 -0.1875 -0.28125 -0.484375zm7.4765625 -0.28125l0 3.21875q0 0.515625 0.21875 0.671875q0.328125 0.265625 1.171875 0.265625q1.21875 0 2.265625 -0.53125q0.390625 -0.203125 0.625 -0.203125q0.3125 0 0.53125 0.234375q0.234375 0.234375 0.234375 0.578125q0 0.3125 -0.25 0.53125q-0.375 0.375 -1.515625 0.6875q-1.125 0.3125 -1.890625 0.3125q-1.5 0 -2.25 -0.640625q-0.734375 -0.65625 -0.734375 -1.59375l0 -3.53125l-0.578125 0q-0.578125 0 -0.828125 -0.21875q-0.25 -0.21875 -0.25 -0.578125q0 -0.359375 0.25 -0.578125q0.25 -0.21875 0.828125 -0.21875l0.578125 0l0 -1.453125q0 -0.578125 0.21875 -0.8125q0.21875 -0.25 0.578125 -0.25q0.359375 0 0.578125 0.25q0.21875 0.234375 0.21875 0.8125l0 1.453125l2.96875 0q0.578125 0 0.8125 0.21875q0.25 0.21875 0.25 0.578125q0 0.359375 -0.25 0.578125q-0.234375 0.21875 -0.8125 0.21875l-2.96875 0zm9.6640625 -1.59375l0 1.0q1.015625 -0.734375 1.59375 -0.96875q0.578125 -0.25 1.09375 -0.25q0.78125 0 1.515625 0.578125q0.5 0.390625 0.5 0.796875q0 0.34375 -0.25 0.59375q-0.234375 0.234375 -0.5625 0.234375q-0.296875 0 -0.625 -0.296875q-0.328125 -0.296875 -0.59375 -0.296875q-0.328125 0 -1.0 0.421875q-0.671875 0.421875 -1.671875 1.265625l0 2.40625l2.28125 0q0.578125 0 0.828125 0.234375q0.25 0.21875 0.25 0.578125q0 0.34375 -0.25 0.578125q-0.25 0.21875 -0.828125 0.21875l-4.828125 0q-0.578125 0 -0.828125 -0.21875q-0.25 -0.234375 -0.25 -0.59375q0 -0.34375 0.25 -0.5625q0.25 -0.234375 0.828125 -0.234375l0.953125 0l0 -3.890625l-0.578125 0q-0.578125 0 -0.828125 -0.21875q-0.25 -0.21875 -0.25 -0.578125q0 -0.359375 0.25 -0.578125q0.25 -0.21875 0.828125 -0.21875l2.171875 0zm11.3828125 7.09375l0 -0.375q-0.609375 0.3125 -1.34375 0.46875q-0.71875 0.171875 -1.3125 0.171875q-1.28125 0 -2.09375 -0.6875q-0.796875 -0.6875 -0.796875 -1.515625q0 -1.0 1.015625 -1.859375q1.03125 -0.875 2.84375 -0.875q0.734375 0 1.6875 0.15625l0 -0.375q0 -0.359375 -0.3125 -0.578125q-0.3125 -0.234375 -1.171875 -0.234375q-0.71875 0 -1.84375 0.28125q-0.421875 0.09375 -0.65625 0.09375q-0.328125 0 -0.546875 -0.21875q-0.21875 -0.234375 -0.21875 -0.59375q0 -0.203125 0.078125 -0.34375q0.078125 -0.15625 0.21875 -0.25q0.140625 -0.09375 0.578125 -0.21875q0.59375 -0.15625 1.203125 -0.25q0.625 -0.109375 1.125 -0.109375q1.5 0 2.3125 0.65625q0.828125 0.640625 0.828125 1.75l0 3.296875l0.28125 0q0.578125 0 0.8125 0.234375q0.25 0.21875 0.25 0.578125q0 0.34375 -0.25 0.578125q-0.234375 0.21875 -0.8125 0.21875l-1.875 0zm0 -2.875q-0.96875 -0.1875 -1.78125 -0.1875q-0.96875 0 -1.671875 0.484375q-0.4375 0.296875 -0.4375 0.609375q0 0.234375 0.203125 0.375q0.390625 0.25 1.078125 0.25q0.578125 0 1.296875 -0.21875q0.734375 -0.234375 1.3125 -0.625l0 -0.6875zm7.7578125 -2.625l0 3.21875q0 0.515625 0.21875 0.671875q0.328125 0.265625 1.171875 0.265625q1.21875 0 2.265625 -0.53125q0.390625 -0.203125 0.625 -0.203125q0.3125 0 0.53125 0.234375q0.234375 0.234375 0.234375 0.578125q0 0.3125 -0.25 0.53125q-0.375 0.375 -1.515625 0.6875q-1.125 0.3125 -1.890625 0.3125q-1.5 0 -2.25 -0.640625q-0.734375 -0.65625 -0.734375 -1.59375l0 -3.53125l-0.578125 0q-0.578125 0 -0.828125 -0.21875q-0.25 -0.21875 -0.25 -0.578125q0 -0.359375 0.25 -0.578125q0.25 -0.21875 0.828125 -0.21875l0.578125 0l0 -1.453125q0 -0.578125 0.21875 -0.8125q0.21875 -0.25 0.578125 -0.25q0.359375 0 0.578125 0.25q0.21875 0.234375 0.21875 0.8125l0 1.453125l2.96875 0q0.578125 0 0.8125 0.21875q0.25 0.21875 0.25 0.578125q0 0.359375 -0.25 0.578125q-0.234375 0.21875 -0.8125 0.21875l-2.96875 0zm14.1640625 2.078125q0 0.921875 -0.515625 1.796875q-0.515625 0.859375 -1.53125 1.375q-1.0 0.515625 -2.109375 0.515625q-1.09375 0 -2.09375 -0.5q-1.0 -0.515625 -1.53125 -1.375q-0.515625 -0.875 -0.515625 -1.828125q0 -0.953125 0.53125 -1.875q0.53125 -0.9375 1.53125 -1.46875q1.0 -0.53125 2.078125 -0.53125q1.09375 0 2.109375 0.546875q1.015625 0.546875 1.53125 1.46875q0.515625 0.90625 0.515625 1.875zm-1.609375 0.015625q0 -0.78125 -0.546875 -1.421875q-0.765625 -0.875 -2.0 -0.875q-1.078125 0 -1.8125 0.703125q-0.71875 0.6875 -0.71875 1.59375q0 0.75 0.734375 1.40625q0.734375 0.65625 1.796875 0.65625q1.078125 0 1.8125 -0.65625q0.734375 -0.65625 0.734375 -1.40625zm6.7109375 -3.6875l0 1.0q1.015625 -0.734375 1.59375 -0.96875q0.578125 -0.25 1.09375 -0.25q0.78125 0 1.515625 0.578125q0.5 0.390625 0.5 0.796875q0 0.34375 -0.25 0.59375q-0.234375 0.234375 -0.5625 0.234375q-0.296875 0 -0.625 -0.296875q-0.328125 -0.296875 -0.59375 -0.296875q-0.328125 0 -1.0 0.421875q-0.671875 0.421875 -1.671875 1.265625l0 2.40625l2.28125 0q0.578125 0 0.828125 0.234375q0.25 0.21875 0.25 0.578125q0 0.34375 -0.25 0.578125q-0.25 0.21875 -0.828125 0.21875l-4.828125 0q-0.578125 0 -0.828125 -0.21875q-0.25 -0.234375 -0.25 -0.59375q0 -0.34375 0.25 -0.5625q0.25 -0.234375 0.828125 -0.234375l0.953125 0l0 -3.890625l-0.578125 0q-0.578125 0 -0.828125 -0.21875q-0.25 -0.21875 -0.25 -0.578125q0 -0.359375 0.25 -0.578125q0.25 -0.21875 0.828125 -0.21875l2.171875 0z" fill-rule="nonzero"/><path fill="#414141" d="m209.62827 220.29936l0 0c0 -12.828674 10.399673 -23.228348 23.228348 -23.228348l115.023605 0c6.160553 0 12.068756 2.4472656 16.424927 6.803421c4.3561707 4.3561554 6.8034363 10.264374 6.8034363 16.424927l0 0l0 0c0 12.828659 -10.399689 23.228348 -23.228363 23.228348l-115.023605 0c-12.828674 0 -23.228348 -10.399689 -23.228348 -23.228348z" fill-rule="evenodd"/><path fill="#ffffff" d="m255.33034 217.67123l0 7.828125l1.3593597 0q0.71875 0 1.015625 0.28125q0.3125 0.265625 0.3125 0.71875q0 0.4375 -0.3125 0.71875q-0.296875 0.28125 -1.015625 0.28125l-4.6874847 0q-0.734375 0 -1.046875 -0.28125q-0.296875 -0.28125 -0.296875 -0.71875q0 -0.453125 0.296875 -0.71875q0.3125 -0.28125 1.046875 -0.28125l1.328125 0l0 -7.828125l-2.171875 0l0 1.890625q0 0.71875 -0.28125 1.03125q-0.265625 0.296875 -0.71875 0.296875q-0.4375 0 -0.71875 -0.296875q-0.28125 -0.3125 -0.28125 -1.03125l0 -3.90625l10.374985 0l0 3.90625q0 0.71875 -0.28125 1.03125q-0.28125 0.296875 -0.71875 0.296875q-0.4375 0 -0.71875 -0.296875q-0.28125 -0.3125 -0.28125 -1.03125l0 -1.890625l-2.2031097 0zm16.064438 6.40625l-8.21875 0q0.3125 0.78125 1.109375 1.265625q0.796875 0.46875 2.15625 0.46875q1.109375 0 2.953125 -0.46875q0.765625 -0.203125 1.0625 -0.203125q0.390625 0 0.65625 0.296875q0.28125 0.28125 0.28125 0.703125q0 0.390625 -0.28125 0.671875q-0.390625 0.359375 -1.90625 0.6875q-1.515625 0.328125 -2.921875 0.328125q-2.390625 0 -3.84375 -1.359375q-1.4375 -1.359375 -1.4375 -3.34375q0 -2.109375 1.5625 -3.421875q1.5625 -1.328125 3.59375 -1.328125q1.21875 0 2.234375 0.4375q1.015625 0.421875 1.515625 0.90625q0.703125 0.734375 1.171875 1.796875q0.3125 0.734375 0.3125 1.71875l0 0.84375zm-2.21875 -2.0q-0.46875 -0.859375 -1.21875 -1.28125q-0.734375 -0.421875 -1.75 -0.421875q-1.015625 0 -1.765625 0.421875q-0.734375 0.421875 -1.203125 1.28125l5.9375 0zm10.986328 5.421875l0 -0.46875q-0.75 0.40625 -1.65625 0.59375q-0.90625 0.203125 -1.640625 0.203125q-1.625 0 -2.625 -0.84375q-1.0 -0.859375 -1.0 -1.890625q0 -1.265625 1.28125 -2.34375q1.28125 -1.078125 3.546875 -1.078125q0.90625 0 2.09375 0.1875l0 -0.46875q0 -0.453125 -0.390625 -0.734375q-0.375 -0.28125 -1.453125 -0.28125q-0.890625 0 -2.3125 0.34375q-0.53125 0.125 -0.8125 0.125q-0.40625 0 -0.6875 -0.28125q-0.28125 -0.296875 -0.28125 -0.734375q0 -0.265625 0.09375 -0.4375q0.109375 -0.1875 0.28125 -0.296875q0.171875 -0.125 0.734375 -0.28125q0.75 -0.203125 1.515625 -0.3125q0.765625 -0.125 1.390625 -0.125q1.875 0 2.90625 0.8125q1.03125 0.796875 1.03125 2.1875l0 4.125l0.328125 0q0.734375 0 1.03125 0.28125q0.3125 0.265625 0.3125 0.71875q0 0.4375 -0.3125 0.71875q-0.296875 0.28125 -1.03125 0.28125l-2.34375 0zm0 -3.578125q-1.1875 -0.234375 -2.203125 -0.234375q-1.234375 0 -2.109375 0.59375q-0.546875 0.375 -0.546875 0.765625q0 0.28125 0.265625 0.453125q0.484375 0.328125 1.34375 0.328125q0.71875 0 1.625 -0.28125q0.921875 -0.28125 1.625 -0.765625l0 -0.859375zm13.330078 -4.921875q0.359375 -0.34375 0.734375 -0.34375q0.4375 0 0.703125 0.3125q0.28125 0.296875 0.28125 1.015625l0 1.28125q0 0.71875 -0.28125 1.03125q-0.265625 0.296875 -0.71875 0.296875q-0.40625 0 -0.6875 -0.234375q-0.203125 -0.171875 -0.328125 -0.703125q-0.109375 -0.546875 -0.5625 -0.8125q-0.796875 -0.46875 -2.03125 -0.46875q-1.40625 0 -2.265625 0.828125q-0.859375 0.828125 -0.859375 2.09375q0 1.171875 0.8125 1.859375q0.828125 0.671875 2.734375 0.671875q1.25 0 2.046875 -0.25q0.46875 -0.15625 0.890625 -0.53125q0.421875 -0.375 0.765625 -0.375q0.40625 0 0.703125 0.296875q0.296875 0.296875 0.296875 0.71875q0 0.65625 -0.90625 1.25q-1.34375 0.890625 -3.953125 0.890625q-2.328125 0 -3.625 -0.96875q-1.765625 -1.296875 -1.765625 -3.546875q0 -2.140625 1.421875 -3.53125q1.4375 -1.40625 3.734375 -1.40625q0.828125 0 1.53125 0.15625q0.71875 0.15625 1.328125 0.46875zm6.814453 -4.171875l0 4.265625q0.625 -0.359375 1.265625 -0.53125q0.640625 -0.1875 1.296875 -0.1875q1.03125 0 1.84375 0.359375q0.8125 0.34375 1.34375 1.09375q0.53125 0.75 0.53125 1.90625l0 3.765625q0.765625 0 1.0 0.140625q0.46875 0.3125 0.46875 0.859375q0 0.4375 -0.3125 0.71875q-0.296875 0.28125 -1.015625 0.28125l-2.296875 0q-0.703125 0 -1.015625 -0.28125q-0.3125 -0.28125 -0.3125 -0.71875q0 -0.546875 0.46875 -0.859375q0.25 -0.15625 1.0 -0.140625l0 -3.625q0 -0.765625 -0.34375 -1.078125q-0.46875 -0.421875 -1.359375 -0.421875q-0.671875 0 -1.1875 0.265625q-0.5 0.25 -1.375 1.109375l0 3.75q0.765625 0 1.0 0.140625q0.46875 0.3125 0.46875 0.859375q0 0.4375 -0.3125 0.71875q-0.296875 0.28125 -1.015625 0.28125l-2.28125 0q-0.71875 0 -1.03125 -0.28125q-0.3125 -0.28125 -0.3125 -0.71875q0 -0.546875 0.484375 -0.859375q0.234375 -0.15625 1.0 -0.140625l0 -8.671875l-0.34375 0q-0.71875 0 -1.03125 -0.265625q-0.3125 -0.28125 -0.3125 -0.734375q0 -0.4375 0.3125 -0.71875q0.3125 -0.28125 1.03125 -0.28125l2.34375 0zm19.095703 9.25l-8.21875 0q0.3125 0.78125 1.109375 1.265625q0.796875 0.46875 2.15625 0.46875q1.109375 0 2.953125 -0.46875q0.765625 -0.203125 1.0625 -0.203125q0.390625 0 0.65625 0.296875q0.28125 0.28125 0.28125 0.703125q0 0.390625 -0.28125 0.671875q-0.390625 0.359375 -1.90625 0.6875q-1.515625 0.328125 -2.921875 0.328125q-2.390625 0 -3.84375 -1.359375q-1.4375 -1.359375 -1.4375 -3.34375q0 -2.109375 1.5625 -3.421875q1.5625 -1.328125 3.59375 -1.328125q1.21875 0 2.234375 0.4375q1.015625 0.421875 1.515625 0.90625q0.703125 0.734375 1.171875 1.796875q0.3125 0.734375 0.3125 1.71875l0 0.84375zm-2.21875 -2.0q-0.46875 -0.859375 -1.21875 -1.28125q-0.734375 -0.421875 -1.75 -0.421875q-1.015625 0 -1.765625 0.421875q-0.734375 0.421875 -1.203125 1.28125l5.9375 0zm8.783203 -3.453125l0 1.25q1.25 -0.90625 1.96875 -1.203125q0.734375 -0.296875 1.375 -0.296875q0.96875 0 1.890625 0.71875q0.625 0.484375 0.625 1.0q0 0.421875 -0.296875 0.71875q-0.296875 0.296875 -0.71875 0.296875q-0.375 0 -0.78125 -0.359375q-0.40625 -0.375 -0.734375 -0.375q-0.421875 0 -1.25 0.53125q-0.828125 0.515625 -2.078125 1.578125l0 3.015625l2.84375 0q0.71875 0 1.03125 0.28125q0.3125 0.265625 0.3125 0.71875q0 0.4375 -0.3125 0.71875q-0.3125 0.28125 -1.03125 0.28125l-6.046875 0q-0.71875 0 -1.03125 -0.28125q-0.296875 -0.28125 -0.296875 -0.71875q0 -0.453125 0.296875 -0.71875q0.3125 -0.28125 1.03125 -0.28125l1.1875 0l0 -4.859375l-0.71875 0q-0.71875 0 -1.03125 -0.28125q-0.296875 -0.28125 -0.296875 -0.734375q0 -0.4375 0.296875 -0.71875q0.3125 -0.28125 1.03125 -0.28125l2.734375 0z" fill-rule="nonzero"/><path fill="#505050" d="m120.88845 314.75592l0 0c0 -12.828674 10.399681 -23.228363 23.22834 -23.228363l139.40158 0c6.160553 0 12.068756 2.4472656 16.424927 6.8034363c4.3561707 4.35614 6.803406 10.264374 6.803406 16.424927l0 0l0 0c0 12.828644 -10.399658 23.228333 -23.228333 23.228333l-139.40158 0l0 0c-12.828659 0 -23.22834 -10.399689 -23.22834 -23.228333z" fill-rule="evenodd"/><path fill="#ffffff" d="m145.76167 311.53903q0.125 -0.1875 0.28125 -0.28125q0.171875 -0.09375 0.359375 -0.09375q0.328125 0 0.53125 0.21875q0.203125 0.21875 0.203125 0.75l0 1.25q0 0.53125 -0.203125 0.765625q-0.203125 0.21875 -0.53125 0.21875q-0.296875 0 -0.46875 -0.171875q-0.1875 -0.15625 -0.265625 -0.609375q-0.046875 -0.3125 -0.203125 -0.46875q-0.296875 -0.328125 -0.828125 -0.515625q-0.515625 -0.1875 -1.046875 -0.1875q-0.65625 0 -1.21875 0.28125q-0.546875 0.28125 -0.96875 0.9375q-0.421875 0.640625 -0.421875 1.515625l0 0.953125q0 1.0625 0.765625 1.78125q0.78125 0.703125 2.140625 0.703125q0.8125 0 1.390625 -0.21875q0.328125 -0.140625 0.6875 -0.515625q0.234375 -0.234375 0.359375 -0.296875q0.140625 -0.0625 0.296875 -0.0625q0.296875 0 0.515625 0.21875q0.21875 0.21875 0.21875 0.515625q0 0.3125 -0.296875 0.65625q-0.4375 0.5 -1.125 0.78125q-0.921875 0.390625 -2.03125 0.390625q-1.3125 0 -2.359375 -0.546875q-0.84375 -0.421875 -1.4375 -1.34375q-0.59375 -0.9375 -0.59375 -2.03125l0 -0.984375q0 -1.15625 0.53125 -2.140625q0.546875 -1.0 1.484375 -1.53125q0.9375 -0.53125 2.0 -0.53125q0.640625 0 1.1875 0.140625q0.5625 0.140625 1.046875 0.453125zm10.295181 5.171875q0 0.84375 -0.46875 1.640625q-0.46875 0.78125 -1.390625 1.25q-0.921875 0.46875 -1.9375 0.46875q-1.0 0 -1.921875 -0.453125q-0.90625 -0.46875 -1.390625 -1.265625q-0.484375 -0.796875 -0.484375 -1.65625q0 -0.875 0.484375 -1.71875q0.5 -0.859375 1.40625 -1.34375q0.90625 -0.484375 1.90625 -0.484375q1.0 0 1.921875 0.5q0.9375 0.484375 1.40625 1.328125q0.46875 0.84375 0.46875 1.734375zm-1.46875 0q0 -0.703125 -0.5 -1.296875q-0.703125 -0.796875 -1.828125 -0.796875q-1.0 0 -1.671875 0.640625q-0.65625 0.625 -0.65625 1.46875q0 0.6875 0.671875 1.28125q0.671875 0.59375 1.65625 0.59375q0.984375 0 1.65625 -0.59375q0.671875 -0.59375 0.671875 -1.296875zm4.1858063 -3.375l0 0.421875q0.359375 -0.359375 0.640625 -0.484375q0.296875 -0.140625 0.6875 -0.140625q0.3125 0 0.625 0.15625q0.328125 0.15625 0.625 0.484375q0.375 -0.328125 0.765625 -0.46875q0.390625 -0.15625 0.796875 -0.15625q0.8125 0 1.328125 0.4375q0.671875 0.5625 0.671875 1.5l0 3.28125q0.453125 0 0.671875 0.21875q0.234375 0.203125 0.234375 0.515625q0 0.328125 -0.234375 0.53125q-0.21875 0.203125 -0.75 0.203125l-1.390625 0l0 -4.625q0 -0.34375 -0.125 -0.46875q-0.109375 -0.125 -0.359375 -0.125q-0.25 0 -0.453125 0.125q-0.265625 0.171875 -0.65625 0.671875l0 2.953125q0.46875 0 0.6875 0.21875q0.21875 0.203125 0.21875 0.515625q0 0.328125 -0.21875 0.53125q-0.21875 0.203125 -0.75 0.203125l-1.390625 0l0 -4.625q0 -0.328125 -0.125 -0.453125q-0.125 -0.140625 -0.390625 -0.140625q-0.25 0 -0.5 0.15625q-0.25 0.15625 -0.609375 0.640625l0 2.953125q0.46875 0 0.6875 0.21875q0.234375 0.203125 0.234375 0.515625q0 0.328125 -0.234375 0.53125q-0.21875 0.203125 -0.75 0.203125l-1.328125 0q-0.53125 0 -0.75 -0.203125q-0.234375 -0.203125 -0.234375 -0.53125q0 -0.328125 0.234375 -0.53125q0.21875 -0.203125 0.6875 -0.203125l0 -3.5625q-0.46875 0 -0.6875 -0.203125q-0.234375 -0.21875 -0.234375 -0.53125q0 -0.328125 0.234375 -0.53125q0.21875 -0.203125 0.75 -0.203125l1.390625 0zm9.248306 5.6875l0 2.40625l0.875 0q0.53125 0 0.75 0.203125q0.234375 0.203125 0.234375 0.53125q0 0.328125 -0.234375 0.53125q-0.21875 0.203125 -0.75 0.203125l-2.59375 0q-0.53125 0 -0.765625 -0.203125q-0.21875 -0.203125 -0.21875 -0.53125q0 -0.328125 0.234375 -0.53125q0.234375 -0.203125 0.75 -0.203125l0.25 0l0 -6.625l-0.25 0q-0.53125 0 -0.765625 -0.203125q-0.21875 -0.203125 -0.21875 -0.53125q0 -0.328125 0.21875 -0.53125q0.234375 -0.203125 0.765625 -0.203125l1.71875 0l0 0.5q0.515625 -0.34375 1.0625 -0.515625q0.546875 -0.171875 1.125 -0.171875q1.515625 0 2.5625 1.015625q1.0625 1.015625 1.0625 2.34375q0 1.453125 -1.25 2.390625q-1.046875 0.78125 -2.359375 0.78125q-0.5625 0 -1.109375 -0.15625q-0.546875 -0.171875 -1.09375 -0.5zm4.34375 -2.515625q0 -0.3125 -0.25 -0.78125q-0.234375 -0.484375 -0.734375 -0.796875q-0.5 -0.3125 -1.1875 -0.3125q-1.09375 0 -1.734375 0.8125q-0.4375 0.578125 -0.4375 1.09375q0 0.578125 0.625 1.140625q0.625 0.546875 1.546875 0.546875q0.9375 0 1.546875 -0.546875q0.625 -0.546875 0.625 -1.15625zm4.1233063 2.953125q-0.1875 0.234375 -0.3125 0.296875q-0.109375 0.0625 -0.28125 0.0625q-0.34375 0 -0.546875 -0.21875q-0.203125 -0.234375 -0.203125 -0.75l0 -0.984375q0 -0.53125 0.203125 -0.75q0.203125 -0.234375 0.546875 -0.234375q0.25 0 0.421875 0.140625q0.1875 0.125 0.28125 0.453125q0.09375 0.3125 0.1875 0.421875q0.203125 0.234375 0.734375 0.46875q0.53125 0.21875 1.15625 0.21875q0.984375 0 1.609375 -0.453125q0.40625 -0.28125 0.40625 -0.6875q0 -0.28125 -0.203125 -0.515625q-0.1875 -0.25 -0.625 -0.40625q-0.28125 -0.09375 -1.28125 -0.28125q-1.1875 -0.234375 -1.8125 -0.546875q-0.609375 -0.3125 -0.96875 -0.875q-0.359375 -0.578125 -0.359375 -1.25q0 -1.046875 0.875 -1.828125q0.890625 -0.796875 2.296875 -0.796875q0.5625 0 1.046875 0.125q0.484375 0.125 0.875 0.375q0.28125 -0.28125 0.578125 -0.28125q0.3125 0 0.515625 0.234375q0.203125 0.21875 0.203125 0.75l0 1.09375q0 0.53125 -0.203125 0.765625q-0.203125 0.21875 -0.515625 0.21875q-0.28125 0 -0.484375 -0.171875q-0.15625 -0.109375 -0.234375 -0.46875q-0.078125 -0.375 -0.1875 -0.53125q-0.21875 -0.28125 -0.640625 -0.453125q-0.40625 -0.1875 -0.953125 -0.1875q-0.796875 0 -1.265625 0.375q-0.453125 0.359375 -0.453125 0.75q0 0.28125 0.1875 0.53125q0.203125 0.25 0.5625 0.390625q0.25 0.109375 1.375 0.328125q1.125 0.21875 1.71875 0.484375q0.609375 0.265625 1.015625 0.84375q0.40625 0.5625 0.40625 1.328125q0 1.09375 -0.765625 1.75q-1.015625 0.859375 -2.59375 0.859375q-0.609375 0 -1.1875 -0.15625q-0.578125 -0.140625 -1.125 -0.4375zm13.232681 -5.859375q0.265625 -0.25 0.546875 -0.25q0.3125 0 0.515625 0.234375q0.203125 0.21875 0.203125 0.734375l0 0.953125q0 0.53125 -0.203125 0.75q-0.203125 0.21875 -0.53125 0.21875q-0.3125 0 -0.515625 -0.171875q-0.140625 -0.125 -0.234375 -0.515625q-0.078125 -0.40625 -0.421875 -0.59375q-0.578125 -0.34375 -1.46875 -0.34375q-1.046875 0 -1.671875 0.609375q-0.625 0.609375 -0.625 1.53125q0 0.859375 0.59375 1.359375q0.609375 0.5 2.0 0.5q0.921875 0 1.5 -0.1875q0.34375 -0.125 0.640625 -0.390625q0.3125 -0.28125 0.5625 -0.28125q0.3125 0 0.53125 0.234375q0.21875 0.21875 0.21875 0.515625q0 0.484375 -0.671875 0.921875q-0.984375 0.65625 -2.890625 0.65625q-1.703125 0 -2.65625 -0.71875q-1.296875 -0.953125 -1.296875 -2.59375q0 -1.578125 1.046875 -2.59375q1.046875 -1.03125 2.734375 -1.03125q0.609375 0 1.125 0.109375q0.515625 0.109375 0.96875 0.34375zm7.0295563 -3.046875l0 1.546875l-1.75 0l0 -1.546875l1.75 0zm0.203125 2.78125l0 5.03125l1.765625 0q0.515625 0 0.734375 0.203125q0.234375 0.203125 0.234375 0.53125q0 0.328125 -0.234375 0.53125q-0.21875 0.203125 -0.734375 0.203125l-5.0 0q-0.53125 0 -0.75 -0.203125q-0.21875 -0.203125 -0.21875 -0.53125q0 -0.328125 0.21875 -0.53125q0.21875 -0.203125 0.75 -0.203125l1.765625 0l0 -3.5625l-1.1875 0q-0.515625 0 -0.75 -0.203125q-0.21875 -0.203125 -0.21875 -0.53125q0 -0.328125 0.21875 -0.53125q0.234375 -0.203125 0.75 -0.203125l2.65625 0zm8.795181 -0.703125l0 5.734375l1.484375 0q0.53125 0 0.75 0.203125q0.234375 0.203125 0.234375 0.53125q0 0.328125 -0.234375 0.53125q-0.21875 0.203125 -0.75 0.203125l-4.421875 0q-0.53125 0 -0.765625 -0.203125q-0.21875 -0.203125 -0.21875 -0.53125q0 -0.328125 0.21875 -0.53125q0.234375 -0.203125 0.765625 -0.203125l1.484375 0l0 -5.734375l-1.484375 0q-0.53125 0 -0.765625 -0.203125q-0.21875 -0.203125 -0.21875 -0.53125q0 -0.328125 0.21875 -0.53125q0.234375 -0.21875 0.765625 -0.21875l4.421875 0.015625q0.53125 0 0.75 0.203125q0.234375 0.203125 0.234375 0.53125q0 0.328125 -0.234375 0.53125q-0.21875 0.203125 -0.75 0.203125l-1.484375 0zm6.5764313 0.703125l0 0.5q0.40625 -0.34375 0.890625 -0.515625q0.484375 -0.171875 1.046875 -0.171875q1.296875 0 2.0625 0.8125q0.59375 0.640625 0.59375 1.6875l0 2.71875q0.46875 0 0.6875 0.203125q0.234375 0.203125 0.234375 0.53125q0 0.328125 -0.234375 0.53125q-0.21875 0.203125 -0.75 0.203125l-1.328125 0q-0.53125 0 -0.765625 -0.203125q-0.21875 -0.203125 -0.21875 -0.53125q0 -0.328125 0.21875 -0.53125q0.234375 -0.203125 0.703125 -0.203125l0 -2.765625q0 -0.484375 -0.265625 -0.703125q-0.328125 -0.28125 -1.015625 -0.28125q-0.5 0 -0.890625 0.203125q-0.375 0.1875 -0.96875 0.828125l0 2.71875q0.578125 0 0.734375 0.109375q0.359375 0.21875 0.359375 0.625q0 0.328125 -0.234375 0.53125q-0.21875 0.203125 -0.75 0.203125l-1.671875 0q-0.53125 0 -0.765625 -0.203125q-0.21875 -0.203125 -0.21875 -0.53125q0 -0.40625 0.34375 -0.625q0.171875 -0.109375 0.75 -0.109375l0 -3.5625q-0.46875 0 -0.703125 -0.203125q-0.21875 -0.21875 -0.21875 -0.53125q0 -0.328125 0.21875 -0.53125q0.234375 -0.203125 0.765625 -0.203125l1.390625 0zm11.873306 1.71875q-0.359375 -0.21875 -0.75 -0.328125q-0.390625 -0.109375 -0.828125 -0.109375q-0.84375 0 -1.34375 0.28125q-0.234375 0.109375 -0.234375 0.25q0 0.171875 0.3125 0.328125q0.21875 0.109375 1.015625 0.21875q1.46875 0.203125 2.03125 0.40625q0.75 0.265625 1.15625 0.796875q0.40625 0.515625 0.40625 1.09375q0 0.78125 -0.6875 1.3125q-1.0 0.765625 -2.578125 0.765625q-0.640625 0 -1.1875 -0.109375q-0.53125 -0.109375 -0.984375 -0.328125q-0.109375 0.09375 -0.234375 0.15625q-0.125 0.046875 -0.25 0.046875q-0.34375 0 -0.546875 -0.21875q-0.203125 -0.234375 -0.203125 -0.765625l0 -0.5q0 -0.53125 0.203125 -0.75q0.203125 -0.234375 0.53125 -0.234375q0.265625 0 0.4375 0.15625q0.1875 0.140625 0.296875 0.5q0.328125 0.28125 0.796875 0.4375q0.484375 0.140625 1.09375 0.140625q1.015625 0 1.5625 -0.3125q0.265625 -0.15625 0.265625 -0.328125q0 -0.28125 -0.375 -0.46875q-0.375 -0.1875 -1.5625 -0.3125q-1.765625 -0.1875 -2.375 -0.71875q-0.59375 -0.53125 -0.59375 -1.296875q0 -0.78125 0.671875 -1.296875q0.90625 -0.71875 2.359375 -0.71875q0.515625 0 0.984375 0.09375q0.46875 0.09375 0.890625 0.296875q0.140625 -0.09375 0.25 -0.140625q0.125 -0.0625 0.21875 -0.0625q0.3125 0 0.5 0.234375q0.203125 0.21875 0.203125 0.75l0 0.359375q0 0.46875 -0.109375 0.640625q-0.234375 0.34375 -0.625 0.34375q-0.265625 0 -0.46875 -0.171875q-0.1875 -0.171875 -0.25 -0.4375zm6.8420563 -0.25l0 2.9375q0 0.46875 0.203125 0.625q0.296875 0.234375 1.0625 0.234375q1.125 0 2.078125 -0.46875q0.375 -0.1875 0.578125 -0.1875q0.28125 0 0.484375 0.21875q0.21875 0.203125 0.21875 0.515625q0 0.28125 -0.21875 0.484375q-0.359375 0.34375 -1.390625 0.625q-1.03125 0.28125 -1.75 0.28125q-1.359375 0 -2.046875 -0.578125q-0.6875 -0.59375 -0.6875 -1.453125l0 -3.234375l-0.515625 0q-0.53125 0 -0.765625 -0.203125q-0.21875 -0.203125 -0.21875 -0.53125q0 -0.328125 0.21875 -0.53125q0.234375 -0.203125 0.765625 -0.203125l0.515625 0l0 -1.328125q0 -0.515625 0.203125 -0.734375q0.21875 -0.234375 0.546875 -0.234375q0.3125 0 0.515625 0.234375q0.203125 0.21875 0.203125 0.734375l0 1.328125l2.71875 0q0.53125 0 0.75 0.203125q0.234375 0.203125 0.234375 0.53125q0 0.328125 -0.234375 0.53125q-0.21875 0.203125 -0.75 0.203125l-2.71875 0zm8.857681 -1.46875l0 0.921875q0.921875 -0.671875 1.453125 -0.890625q0.53125 -0.21875 1.0 -0.21875q0.71875 0 1.390625 0.53125q0.453125 0.359375 0.453125 0.71875q0 0.328125 -0.21875 0.546875q-0.21875 0.203125 -0.515625 0.203125q-0.28125 0 -0.578125 -0.265625q-0.296875 -0.265625 -0.53125 -0.265625q-0.3125 0 -0.921875 0.390625q-0.609375 0.375 -1.53125 1.15625l0 2.203125l2.09375 0q0.53125 0 0.75 0.203125q0.21875 0.203125 0.21875 0.53125q0 0.328125 -0.21875 0.53125q-0.21875 0.203125 -0.75 0.203125l-4.4375 0q-0.53125 0 -0.765625 -0.203125q-0.21875 -0.203125 -0.21875 -0.53125q0 -0.328125 0.21875 -0.53125q0.234375 -0.203125 0.765625 -0.203125l0.875 0l0 -3.5625l-0.53125 0q-0.53125 0 -0.765625 -0.203125q-0.21875 -0.203125 -0.21875 -0.53125q0 -0.328125 0.21875 -0.53125q0.234375 -0.203125 0.765625 -0.203125l2.0 0zm12.217056 0l0 5.03125q0.46875 0 0.6875 0.21875q0.21875 0.203125 0.21875 0.515625q0 0.328125 -0.234375 0.53125q-0.21875 0.203125 -0.75 0.203125l-1.390625 0l0 -0.34375q-0.625 0.296875 -1.203125 0.4375q-0.578125 0.140625 -1.09375 0.140625q-0.71875 0 -1.25 -0.296875q-0.53125 -0.3125 -0.828125 -0.84375q-0.21875 -0.390625 -0.21875 -0.96875l0 -3.15625l-0.265625 0q-0.515625 0 -0.75 -0.203125q-0.21875 -0.203125 -0.21875 -0.53125q0 -0.328125 0.21875 -0.53125q0.234375 -0.203125 0.75 -0.203125l1.71875 0l0 4.375q0 0.453125 0.21875 0.671875q0.234375 0.21875 0.703125 0.21875q0.4375 0 0.953125 -0.171875q0.515625 -0.171875 1.265625 -0.640625l0 -2.984375l-0.53125 0q-0.53125 0 -0.765625 -0.203125q-0.21875 -0.203125 -0.21875 -0.53125q0 -0.328125 0.21875 -0.53125q0.234375 -0.203125 0.765625 -0.203125l2.0 0zm7.9670563 0.265625q0.265625 -0.25 0.546875 -0.25q0.3125 0 0.515625 0.234375q0.203125 0.21875 0.203125 0.734375l0 0.953125q0 0.53125 -0.203125 0.75q-0.203125 0.21875 -0.53125 0.21875q-0.3125 0 -0.515625 -0.171875q-0.140625 -0.125 -0.234375 -0.515625q-0.078125 -0.40625 -0.421875 -0.59375q-0.578125 -0.34375 -1.46875 -0.34375q-1.046875 0 -1.671875 0.609375q-0.625 0.609375 -0.625 1.53125q0 0.859375 0.59375 1.359375q0.609375 0.5 2.0 0.5q0.921875 0 1.5 -0.1875q0.34375 -0.125 0.640625 -0.390625q0.3125 -0.28125 0.5625 -0.28125q0.3125 0 0.53125 0.234375q0.21875 0.21875 0.21875 0.515625q0 0.484375 -0.671875 0.921875q-0.984375 0.65625 -2.890625 0.65625q-1.703125 0 -2.65625 -0.71875q-1.296875 -0.953125 -1.296875 -2.59375q0 -1.578125 1.046875 -2.59375q1.046875 -1.03125 2.734375 -1.03125q0.609375 0 1.125 0.109375q0.515625 0.109375 0.96875 0.34375zm6.138916 1.203125l0 2.9375q0 0.46875 0.203125 0.625q0.296875 0.234375 1.0625 0.234375q1.125 0 2.078125 -0.46875q0.375 -0.1875 0.578125 -0.1875q0.28125 0 0.484375 0.21875q0.21875 0.203125 0.21875 0.515625q0 0.28125 -0.21875 0.484375q-0.359375 0.34375 -1.390625 0.625q-1.03125 0.28125 -1.75 0.28125q-1.359375 0 -2.046875 -0.578125q-0.6875 -0.59375 -0.6875 -1.453125l0 -3.234375l-0.515625 0q-0.53125 0 -0.765625 -0.203125q-0.21875 -0.203125 -0.21875 -0.53125q0 -0.328125 0.21875 -0.53125q0.234375 -0.203125 0.765625 -0.203125l0.515625 0l0 -1.328125q0 -0.515625 0.203125 -0.734375q0.21875 -0.234375 0.546875 -0.234375q0.3125 0 0.515625 0.234375q0.203125 0.21875 0.203125 0.734375l0 1.328125l2.71875 0q0.53125 0 0.75 0.203125q0.234375 0.203125 0.234375 0.53125q0 0.328125 -0.234375 0.53125q-0.21875 0.203125 -0.75 0.203125l-2.71875 0zm12.967072 1.90625q0 0.84375 -0.46875 1.640625q-0.46875 0.78125 -1.390625 1.25q-0.921875 0.46875 -1.9375 0.46875q-1.0 0 -1.921875 -0.453125q-0.90625 -0.46875 -1.390625 -1.265625q-0.484375 -0.796875 -0.484375 -1.65625q0 -0.875 0.484375 -1.71875q0.5 -0.859375 1.40625 -1.34375q0.90625 -0.484375 1.90625 -0.484375q1.0 0 1.921875 0.5q0.9375 0.484375 1.40625 1.328125q0.46875 0.84375 0.46875 1.734375zm-1.46875 0q0 -0.703125 -0.5 -1.296875q-0.703125 -0.796875 -1.828125 -0.796875q-1.0 0 -1.671875 0.640625q-0.65625 0.625 -0.65625 1.46875q0 0.6875 0.671875 1.28125q0.671875 0.59375 1.65625 0.59375q0.984375 0 1.65625 -0.59375q0.671875 -0.59375 0.671875 -1.296875zm6.154541 -3.375l0 0.921875q0.921875 -0.671875 1.453125 -0.890625q0.53125 -0.21875 1.0 -0.21875q0.71875 0 1.390625 0.53125q0.453125 0.359375 0.453125 0.71875q0 0.328125 -0.21875 0.546875q-0.21875 0.203125 -0.515625 0.203125q-0.28125 0 -0.578125 -0.265625q-0.296875 -0.265625 -0.53125 -0.265625q-0.3125 0 -0.921875 0.390625q-0.609375 0.375 -1.53125 1.15625l0 2.203125l2.09375 0q0.53125 0 0.75 0.203125q0.21875 0.203125 0.21875 0.53125q0 0.328125 -0.21875 0.53125q-0.21875 0.203125 -0.75 0.203125l-4.4375 0q-0.53125 0 -0.765625 -0.203125q-0.21875 -0.203125 -0.21875 -0.53125q0 -0.328125 0.21875 -0.53125q0.234375 -0.203125 0.765625 -0.203125l0.875 0l0 -3.5625l-0.53125 0q-0.53125 0 -0.765625 -0.203125q-0.21875 -0.203125 -0.21875 -0.53125q0 -0.328125 0.21875 -0.53125q0.234375 -0.203125 0.765625 -0.203125l2.0 0z" fill-rule="nonzero"/><path fill="#000000" fill-opacity="0.0" d="m476.22635 149.07086l0 24.0l185.85825 0l0 24.0" fill-rule="evenodd"/><path stroke="#c2c2c2" stroke-width="1.0" stroke-linejoin="round" stroke-linecap="butt" d="m476.22635 149.07086l0 24.0l185.85825 0l0 24.0" fill-rule="evenodd"/><path fill="#000000" fill-opacity="0.0" d="m290.3684 197.07101l0 -24.0l185.85828 0l0 -24.0" fill-rule="evenodd"/><path stroke="#c2c2c2" stroke-width="1.0" stroke-linejoin="round" stroke-linecap="butt" d="m290.3684 197.07101l0 -24.0l185.85828 0l0 -24.0" fill-rule="evenodd"/><path fill="#000000" fill-opacity="0.0" d="m213.81758 291.52756l0 -24.0l76.535446 0l0 -24.0" fill-rule="evenodd"/><path stroke="#c2c2c2" stroke-width="1.0" stroke-linejoin="round" stroke-linecap="butt" d="m213.81758 291.52756l0 -24.0l76.535446 0l0 -24.0" fill-rule="evenodd"/><path fill="#505050" d="m639.2664 314.75592l0 0c0 -12.828674 10.399658 -23.228363 23.228333 -23.228363l139.40155 0c6.1605835 0 12.068787 2.4472656 16.424927 6.8034363c4.356201 4.35614 6.803467 10.264374 6.803467 16.424927l0 0l0 0c0 12.828644 -10.399719 23.228333 -23.228394 23.228333l-139.40155 0l0 0c-12.828674 0 -23.228333 -10.399689 -23.228333 -23.228333z" fill-rule="evenodd"/><path fill="#ffffff" d="m689.6051 317.38028l0 1.78125l1.75 0q0.625 0 0.890625 0.25q0.265625 0.234375 0.265625 0.625q0 0.375 -0.265625 0.625q-0.265625 0.234375 -0.890625 0.234375l-3.765625 0q-0.625 0 -0.890625 -0.234375q-0.265625 -0.25 -0.265625 -0.640625q0 -0.375 0.265625 -0.609375q0.28125 -0.25 0.890625 -0.25l0.28125 0l0 -6.78125l-0.28125 0q-0.625 0 -0.890625 -0.234375q-0.265625 -0.25 -0.265625 -0.640625q0 -0.390625 0.265625 -0.625q0.265625 -0.25 0.890625 -0.25l4.0 0.015625q1.75 0 2.78125 0.96875q1.03125 0.953125 1.03125 2.328125q0 0.765625 -0.34375 1.4375q-0.265625 0.5 -0.875 1.0q-0.609375 0.5 -1.25 0.75q-0.640625 0.25 -1.6875 0.25l-1.640625 0zm0 -1.734375l1.59375 0q1.140625 0 1.796875 -0.515625q0.671875 -0.515625 0.671875 -1.234375q0 -0.609375 -0.546875 -1.0625q-0.53125 -0.453125 -1.53125 -0.453125l-1.984375 0l0 3.265625zm11.039185 -2.4375l0 1.09375q1.09375 -0.796875 1.71875 -1.046875q0.625 -0.265625 1.171875 -0.265625q0.859375 0 1.65625 0.625q0.53125 0.421875 0.53125 0.859375q0 0.375 -0.265625 0.640625q-0.25 0.25 -0.609375 0.25q-0.328125 0 -0.6875 -0.3125q-0.34375 -0.328125 -0.625 -0.328125q-0.359375 0 -1.09375 0.453125q-0.71875 0.453125 -1.796875 1.375l0 2.609375l2.46875 0q0.625 0 0.890625 0.25q0.265625 0.234375 0.265625 0.625q0 0.375 -0.265625 0.625q-0.265625 0.234375 -0.890625 0.234375l-5.234375 0q-0.625 0 -0.90625 -0.234375q-0.265625 -0.25 -0.265625 -0.640625q0 -0.375 0.265625 -0.609375q0.28125 -0.25 0.90625 -0.25l1.03125 0l0 -4.21875l-0.625 0q-0.625 0 -0.90625 -0.234375q-0.265625 -0.25 -0.265625 -0.625q0 -0.390625 0.265625 -0.625q0.28125 -0.25 0.90625 -0.25l2.359375 0zm11.382935 -3.28125l0 1.828125l-2.078125 0l0 -1.828125l2.078125 0zm0.234375 3.28125l0 5.953125l2.078125 0q0.625 0 0.890625 0.25q0.265625 0.234375 0.265625 0.625q0 0.375 -0.265625 0.625q-0.265625 0.234375 -0.890625 0.234375l-5.90625 0q-0.625 0 -0.890625 -0.234375q-0.265625 -0.25 -0.265625 -0.640625q0 -0.375 0.265625 -0.609375q0.265625 -0.25 0.890625 -0.25l2.09375 0l0 -4.21875l-1.40625 0q-0.609375 0 -0.890625 -0.234375q-0.265625 -0.25 -0.265625 -0.625q0 -0.390625 0.265625 -0.625q0.265625 -0.25 0.890625 -0.25l3.140625 0zm7.7735596 0l0 0.59375q0.484375 -0.40625 1.046875 -0.609375q0.578125 -0.203125 1.25 -0.203125q1.53125 0 2.4375 0.953125q0.703125 0.765625 0.703125 2.0l0 3.21875q0.546875 0 0.8125 0.25q0.265625 0.234375 0.265625 0.625q0 0.375 -0.265625 0.625q-0.265625 0.234375 -0.890625 0.234375l-1.578125 0q-0.625 0 -0.890625 -0.234375q-0.265625 -0.25 -0.265625 -0.640625q0 -0.375 0.265625 -0.609375q0.265625 -0.25 0.8125 -0.25l0 -3.28125q0 -0.5625 -0.296875 -0.828125q-0.40625 -0.328125 -1.203125 -0.328125q-0.59375 0 -1.046875 0.234375q-0.453125 0.21875 -1.15625 0.984375l0 3.21875q0.671875 0 0.875 0.125q0.40625 0.25 0.40625 0.75q0 0.375 -0.265625 0.625q-0.265625 0.234375 -0.890625 0.234375l-1.96875 0q-0.625 0 -0.890625 -0.234375q-0.265625 -0.25 -0.265625 -0.640625q0 -0.46875 0.40625 -0.734375q0.203125 -0.125 0.859375 -0.125l0 -4.21875q-0.546875 0 -0.8125 -0.234375q-0.25 -0.25 -0.25 -0.625q0 -0.390625 0.265625 -0.625q0.265625 -0.25 0.890625 -0.25l1.640625 0zm14.867371 0.3125q0.3125 -0.296875 0.640625 -0.296875q0.375 0 0.609375 0.28125q0.25 0.265625 0.25 0.875l0 1.125q0 0.625 -0.25 0.890625q-0.234375 0.25 -0.625 0.25q-0.359375 0 -0.609375 -0.203125q-0.171875 -0.15625 -0.28125 -0.625q-0.09375 -0.46875 -0.484375 -0.6875q-0.6875 -0.40625 -1.75 -0.40625q-1.21875 0 -1.96875 0.71875q-0.734375 0.71875 -0.734375 1.8125q0 1.015625 0.703125 1.609375q0.71875 0.578125 2.359375 0.578125q1.09375 0 1.765625 -0.21875q0.40625 -0.125 0.765625 -0.453125q0.375 -0.328125 0.671875 -0.328125q0.359375 0 0.609375 0.265625q0.265625 0.265625 0.265625 0.609375q0 0.578125 -0.796875 1.09375q-1.15625 0.765625 -3.40625 0.765625q-2.03125 0 -3.15625 -0.828125q-1.515625 -1.125 -1.515625 -3.078125q0 -1.859375 1.234375 -3.0625q1.234375 -1.21875 3.21875 -1.21875q0.71875 0 1.328125 0.140625q0.625 0.125 1.15625 0.390625zm8.320435 -3.59375l0 1.828125l-2.078125 0l0 -1.828125l2.078125 0zm0.234375 3.28125l0 5.953125l2.078125 0q0.625 0 0.890625 0.25q0.265625 0.234375 0.265625 0.625q0 0.375 -0.265625 0.625q-0.265625 0.234375 -0.890625 0.234375l-5.90625 0q-0.625 0 -0.890625 -0.234375q-0.265625 -0.25 -0.265625 -0.640625q0 -0.375 0.265625 -0.609375q0.265625 -0.25 0.890625 -0.25l2.09375 0l0 -4.21875l-1.40625 0q-0.609375 0 -0.890625 -0.234375q-0.265625 -0.25 -0.265625 -0.625q0 -0.390625 0.265625 -0.625q0.265625 -0.25 0.890625 -0.25l3.140625 0zm7.3829346 6.734375l0 2.84375l1.046875 0q0.625 0 0.890625 0.234375q0.265625 0.25 0.265625 0.640625q0 0.375 -0.265625 0.609375q-0.265625 0.25 -0.890625 0.25l-3.078125 0q-0.625 0 -0.890625 -0.25q-0.265625 -0.234375 -0.265625 -0.609375q0 -0.390625 0.265625 -0.640625q0.265625 -0.234375 0.890625 -0.234375l0.296875 0l0 -7.84375l-0.296875 0q-0.625 0 -0.890625 -0.234375q-0.265625 -0.25 -0.265625 -0.625q0 -0.390625 0.265625 -0.625q0.265625 -0.25 0.890625 -0.25l2.03125 0l0 0.59375q0.609375 -0.40625 1.25 -0.609375q0.65625 -0.203125 1.34375 -0.203125q1.78125 0 3.03125 1.203125q1.25 1.203125 1.25 2.765625q0 1.71875 -1.484375 2.828125q-1.234375 0.9375 -2.78125 0.9375q-0.671875 0 -1.328125 -0.1875q-0.640625 -0.203125 -1.28125 -0.59375zm5.140625 -2.984375q0 -0.359375 -0.296875 -0.921875q-0.28125 -0.5625 -0.875 -0.9375q-0.59375 -0.375 -1.390625 -0.375q-1.296875 0 -2.0625 0.96875q-0.515625 0.671875 -0.515625 1.28125q0 0.703125 0.734375 1.359375q0.75 0.65625 1.84375 0.65625q1.09375 0 1.828125 -0.65625q0.734375 -0.65625 0.734375 -1.375zm8.976685 3.9375l0 -0.40625q-0.65625 0.34375 -1.453125 0.515625q-0.78125 0.171875 -1.421875 0.171875q-1.390625 0 -2.265625 -0.734375q-0.875 -0.734375 -0.875 -1.640625q0 -1.09375 1.109375 -2.015625q1.125 -0.9375 3.078125 -0.9375q0.796875 0 1.828125 0.171875l0 -0.421875q0 -0.390625 -0.34375 -0.625q-0.328125 -0.25 -1.265625 -0.25q-0.78125 0 -2.0 0.296875q-0.453125 0.109375 -0.71875 0.109375q-0.34375 0 -0.59375 -0.25q-0.234375 -0.25 -0.234375 -0.640625q0 -0.21875 0.078125 -0.375q0.09375 -0.15625 0.25 -0.25q0.15625 -0.109375 0.640625 -0.234375q0.640625 -0.1875 1.296875 -0.28125q0.671875 -0.109375 1.21875 -0.109375q1.609375 0 2.5 0.703125q0.90625 0.6875 0.90625 1.890625l0 3.578125l0.296875 0q0.625 0 0.890625 0.25q0.265625 0.234375 0.265625 0.625q0 0.375 -0.265625 0.625q-0.265625 0.234375 -0.890625 0.234375l-2.03125 0zm0 -3.109375q-1.046875 -0.203125 -1.921875 -0.203125q-1.0625 0 -1.828125 0.515625q-0.46875 0.328125 -0.46875 0.671875q0 0.25 0.234375 0.40625q0.421875 0.265625 1.15625 0.265625q0.625 0 1.40625 -0.234375q0.796875 -0.25 1.421875 -0.671875l0 -0.75zm9.695496 -7.859375l0 9.234375l2.078125 0q0.640625 0 0.90625 0.25q0.265625 0.234375 0.265625 0.625q0 0.375 -0.265625 0.625q-0.265625 0.234375 -0.90625 0.234375l-5.890625 0q-0.625 0 -0.890625 -0.234375q-0.265625 -0.25 -0.265625 -0.640625q0 -0.375 0.265625 -0.609375q0.265625 -0.25 0.890625 -0.25l2.078125 0l0 -7.5l-1.390625 0q-0.625 0 -0.890625 -0.234375q-0.265625 -0.25 -0.265625 -0.640625q0 -0.375 0.265625 -0.609375q0.265625 -0.25 0.890625 -0.25l3.125 0z" fill-rule="nonzero"/><path fill="#000000" fill-opacity="0.0" d="m732.19556 291.52756l0 -24.0l-70.11023 0l0 -24.0" fill-rule="evenodd"/><path stroke="#c2c2c2" stroke-width="1.0" stroke-linejoin="round" stroke-linecap="butt" d="m732.19556 291.52756l0 -24.0l-70.11023 0l0 -24.0" fill-rule="evenodd"/></g></svg>